<svg width="245" height="551" viewBox="0 0 245 551" fill="none" xmlns="http://www.w3.org/2000/svg">
<g clip-path="url(#clip0)">
<path d="M66.0957 481.131L53.79 488.169C53.0852 452.136 29.672 425.745 18.3812 411.797C6.89312 397.581 22.7791 389.08 36.1561 395.315C49.5331 401.55 60.3869 417.596 64.8412 438.371C68.6893 456.12 66.73 475.74 66.0957 481.131Z" fill="#E1E1E1"/>
<path d="M60.8657 480.033H61.0208C61.2289 480.026 61.4261 479.938 61.5707 479.789C61.7154 479.639 61.7962 479.439 61.796 479.231C60.5415 433.867 45.4025 411.149 27.966 399.594C27.8806 399.522 27.781 399.469 27.6737 399.439C27.5664 399.409 27.4539 399.401 27.3436 399.418C27.2333 399.434 27.1276 399.473 27.0336 399.533C26.9396 399.593 26.8594 399.672 26.7983 399.765C26.7371 399.858 26.6964 399.963 26.6788 400.073C26.6612 400.183 26.6672 400.296 26.6963 400.403C26.7254 400.51 26.7769 400.611 26.8476 400.697C26.9182 400.783 27.0063 400.853 27.1061 400.903C44.3454 412.304 59.0332 434.556 60.2596 479.273C60.2611 479.449 60.3215 479.62 60.4314 479.758C60.5413 479.895 60.6942 479.992 60.8657 480.033Z" fill="white"/>
<path d="M-5.71167e-05 440.031C0.253668 442.551 2.28347 444.465 4.2287 446.083C6.17393 447.702 8.27421 449.462 8.79575 451.925C9.86704 456.907 3.94678 461.496 5.2295 466.422C5.57238 467.437 6.11763 468.371 6.83233 469.17C7.54702 469.968 8.41634 470.613 9.38778 471.067C10.9524 471.911 12.6439 472.474 14.2931 473.15C15.097 473.4 15.9163 473.598 16.7458 473.741C19.2461 473.982 21.5983 475.035 23.4413 476.739C26.1759 479.695 25.8235 484.227 26.7962 488.126C27.952 492.799 30.7289 495.53 37.1002 497.753L58.8924 485.424C64.3193 479.892 66.2364 470.448 61.2323 464.015C58.2299 460.159 52.6057 459.68 49.7724 455.824C47.2351 452.361 48.7011 447.378 47.1506 443.367C45.6 439.356 41.5122 437.99 37.5372 437.315C33.5622 436.639 29.4744 438.244 25.6544 436.85C21.8344 435.457 18.2964 433.219 14.3777 432.219C12.4533 431.657 10.4264 431.537 8.44896 431.869C6.47152 432.2 4.59496 432.975 2.96007 434.134C2.02166 434.8 1.26116 435.687 0.745127 436.715C0.229089 437.743 -0.0267674 438.881 -5.71167e-05 440.031Z" fill="#F0F0F0"/>
<path d="M40.6527 459.681C40.6168 459.588 40.5587 459.506 40.4836 459.441C30.2359 444.944 14.1807 438.061 8.7538 436.851C8.68068 436.835 8.60518 436.834 8.53161 436.847C8.45803 436.861 8.38783 436.888 8.325 436.929C8.19811 437.011 8.10898 437.139 8.0772 437.287C8.06146 437.36 8.06029 437.435 8.07373 437.509C8.08717 437.582 8.11498 437.652 8.15556 437.715C8.19613 437.778 8.24869 437.832 8.31022 437.874C8.37175 437.917 8.44105 437.947 8.51417 437.963C13.6592 439.103 28.5585 445.465 38.5947 458.766C34.5041 457.388 30.1727 456.87 25.872 457.243C21.5714 457.616 17.3943 458.872 13.6028 460.933C13.5391 460.973 13.4841 461.026 13.441 461.087C13.3979 461.149 13.3676 461.218 13.3518 461.292C13.3361 461.365 13.3352 461.441 13.3492 461.515C13.3633 461.589 13.392 461.659 13.4336 461.721C13.4844 461.798 13.5534 461.862 13.6345 461.906C13.7157 461.95 13.8064 461.974 13.8988 461.975C14.0124 461.975 14.1242 461.946 14.223 461.89C18.1079 459.79 22.4064 458.564 26.8165 458.298C31.2266 458.033 35.6413 458.736 39.7506 460.356C45.7057 468.916 48.6775 479.193 48.2081 489.604C48.2038 489.747 48.2538 489.886 48.348 489.993C48.4422 490.1 48.5735 490.167 48.7155 490.181C48.7908 490.185 48.866 490.174 48.9367 490.148C49.0075 490.122 49.0724 490.083 49.1276 490.032C49.1827 489.98 49.2271 489.919 49.258 489.85C49.2889 489.782 49.3058 489.708 49.3076 489.632C49.7924 478.971 46.7511 468.446 40.6527 459.681Z" fill="white"/>
<path d="M101.49 481.243C101.236 475.021 97.6557 411.866 97.6557 411.866L129.174 434.527C124.255 470.377 122.126 481.327 121.83 487.295C121.954 487.796 121.992 488.315 121.943 488.829C121.633 495.867 113.048 499.456 106.282 503.96C100.512 507.935 94.4149 511.414 88.0564 514.361C83.1934 516.473 73.4813 516.346 72.3818 513.39C80.6279 507.859 90.1426 501.849 96.7677 495.444C99.9674 492.376 101.828 488.702 101.49 481.243Z" fill="#FFBFA9"/>
<path d="M62.8245 520.64C62.4439 520.64 61.6969 524.862 63.7126 526.791C66.0384 528.986 72.9594 532.702 82.3332 531.801C91.7069 530.901 96.866 528.156 100.658 525.116C104.45 522.075 109.905 517.797 114.162 516.994C118.108 516.262 122.436 514.616 123.747 513.419C125.058 512.223 125.072 506.762 125.072 506.762L62.8245 520.64Z" fill="#1A2E35"/>
<path d="M121.985 485.593C121.985 485.593 123 485.593 123.197 486.86C123.423 488.38 123.705 492.799 124.226 495.305C124.945 498.781 125.523 505.889 124.903 508.676C124.283 511.463 117.855 513.18 113.626 514.616C108.728 516.585 104.16 519.29 100.08 522.639C95.5555 526.143 86.1958 529.493 80.1205 529.366C70.8314 529.183 64.9111 526.411 63.2055 522.948C61.0629 518.726 61.8805 515.728 72.7484 511.083C76.8995 509.088 80.9371 506.865 84.8426 504.425C91.0907 500.611 96.012 494.97 98.9385 488.267C99.2078 487.366 99.7804 486.585 100.559 486.057C101.221 485.802 101.946 485.763 102.632 485.945C104.408 486.254 109.524 487.099 111.089 487.929C112.654 488.76 114.5 489.562 114.402 491.42C114.334 492.064 114.172 492.694 113.922 493.292C113.781 493.672 113.655 494.179 113.922 494.418C114.19 494.657 114.641 494.418 114.937 494.165C116.029 493.113 117.034 491.974 117.94 490.758C118.459 490.129 119.051 489.562 119.702 489.069C120.346 488.736 120.968 488.36 121.562 487.943C121.746 487.168 121.888 486.383 121.985 485.593Z" fill="#4B717A"/>
<path d="M72.4666 511.04C85.8577 512.448 91.4819 521.273 89.7763 527.635C86.6821 528.704 83.4369 529.274 80.163 529.324C70.8738 529.141 64.5729 526.354 62.8532 522.905C60.8375 518.866 62.7969 514.376 72.4666 511.04Z" fill="#FAFAFA"/>
<path d="M90.7061 512.982C90.8592 512.985 91.0086 512.936 91.129 512.841C91.1986 512.789 91.2571 512.723 91.3011 512.648C91.3452 512.573 91.3739 512.489 91.3857 512.403C91.3975 512.317 91.3921 512.229 91.3698 512.145C91.3475 512.061 91.3088 511.982 91.2559 511.912C89.7667 510.217 87.9268 508.864 85.863 507.948C83.7992 507.032 81.5609 506.574 79.3026 506.606C79.1269 506.624 78.9647 506.708 78.8494 506.842C78.734 506.975 78.6743 507.148 78.6824 507.324C78.6968 507.498 78.7783 507.66 78.9097 507.775C79.0411 507.891 79.2123 507.951 79.3872 507.943C81.4268 507.93 83.4462 508.348 85.3122 509.17C87.1782 509.993 88.8484 511.201 90.2128 512.715C90.2711 512.792 90.3453 512.856 90.4304 512.902C90.5155 512.948 90.6095 512.975 90.7061 512.982Z" fill="#F0F0F0"/>
<path d="M96.1333 509.717C96.286 509.718 96.4347 509.669 96.5562 509.577C96.6936 509.468 96.7836 509.311 96.8073 509.138C96.8309 508.964 96.7864 508.789 96.6831 508.648C95.1967 506.945 93.3552 505.588 91.2879 504.671C89.2205 503.755 86.9773 503.301 84.7157 503.341C84.5545 503.373 84.4103 503.462 84.3099 503.592C84.2096 503.722 84.1599 503.883 84.1703 504.047C84.1806 504.211 84.2503 504.365 84.3662 504.481C84.4821 504.597 84.6364 504.668 84.8003 504.679C86.8452 504.674 88.8679 505.103 90.7342 505.938C92.6005 506.772 94.2679 507.994 95.6259 509.52C95.6922 509.586 95.7715 509.638 95.8589 509.672C95.9462 509.706 96.0397 509.721 96.1333 509.717Z" fill="#F0F0F0"/>
<path d="M101.489 505.537C101.638 505.538 101.782 505.488 101.898 505.396C102.038 505.29 102.13 505.133 102.157 504.96C102.183 504.786 102.141 504.61 102.039 504.467C100.546 502.772 98.7032 501.421 96.6374 500.505C94.5716 499.589 92.3317 499.13 90.0716 499.161C89.9845 499.168 89.8996 499.192 89.8219 499.232C89.7442 499.272 89.6752 499.327 89.6189 499.393C89.5626 499.46 89.52 499.537 89.4937 499.621C89.4673 499.704 89.4578 499.791 89.4655 499.878C89.4691 499.965 89.4899 500.049 89.5267 500.128C89.5636 500.206 89.6158 500.276 89.6801 500.333C89.7445 500.391 89.8198 500.435 89.9015 500.464C89.9833 500.492 90.0699 500.503 90.1562 500.498C92.198 500.488 94.2186 500.91 96.0847 501.738C97.9509 502.565 99.62 503.778 100.982 505.297C101.044 505.371 101.122 505.431 101.21 505.472C101.297 505.513 101.392 505.535 101.489 505.537Z" fill="#F0F0F0"/>
<path d="M106.776 501.329C106.924 501.342 107.071 501.296 107.185 501.202C107.325 501.096 107.417 500.939 107.444 500.766C107.47 500.593 107.428 500.416 107.326 500.273C104.887 496.881 99.1502 494.502 94.2449 494.868C94.0692 494.881 93.9059 494.963 93.7909 495.097C93.6759 495.23 93.6186 495.404 93.6317 495.579C93.6448 495.754 93.7271 495.917 93.8606 496.032C93.9941 496.147 94.1678 496.204 94.3436 496.191C98.7556 495.868 104.098 498.049 106.269 501.061C106.326 501.142 106.402 501.209 106.49 501.256C106.579 501.302 106.676 501.327 106.776 501.329Z" fill="#F0F0F0"/>
<path d="M158.606 431.319L191.816 425.787C192.253 445.492 190.844 471.658 190.195 489.773C190.068 493.249 191.605 516.727 190.421 523.919C188.701 534.701 174.182 533.701 173.111 527.311C172.04 520.921 171.546 493.672 171.363 490.842C170.94 479.019 164.597 459.033 160.298 437.92C160.087 436.878 158.804 432.332 158.606 431.319Z" fill="#FFBFA9"/>
<path d="M167.881 531.942C167.881 538.262 168.698 542.485 170.996 546.327C173.294 550.17 178.044 551.591 182.893 550.789C187.742 549.987 194.17 547.453 195.946 542.104C197.722 536.756 197.665 533.04 196.961 527.143L167.881 531.942Z" fill="#1A2E35"/>
<path d="M190.293 487.773C192.281 488.027 192.21 496.219 192.802 504.776C193.422 513.897 196.241 517.824 196.848 525.312C197.552 533.87 196.848 537.642 193.07 542.582C189.292 547.522 177.057 551.858 171.658 544.173C167.246 537.909 167.43 531.252 168.501 522.792C169.535 515.656 170.161 508.466 170.376 501.257C170.376 494.867 169.431 488.914 171.207 488.308C171.207 489.251 171.334 490.434 171.419 491.363C171.419 492.08 171.419 495.585 172.56 495.585C172.7 494.795 172.761 493.994 172.744 493.192C172.711 492.838 172.751 492.481 172.86 492.143C172.969 491.804 173.145 491.491 173.378 491.222C174.353 490.675 175.435 490.344 176.55 490.251C178.537 490.025 180.525 489.828 182.526 489.786C183.527 489.786 184.528 489.786 185.529 489.786C186.382 489.815 187.228 489.966 188.038 490.237C188.262 490.313 188.468 490.434 188.643 490.594C188.818 490.754 188.957 490.949 189.053 491.166C189.123 491.485 189.123 491.817 189.053 492.137C189.007 492.727 189.054 493.321 189.194 493.896C189.194 494.149 189.419 494.473 189.715 494.431C189.818 494.396 189.907 494.329 189.97 494.241C190.034 494.153 190.068 494.047 190.068 493.938C190.138 492.911 190.068 492.151 190.068 490.954C190.068 490.406 190.068 489.885 190.152 489.336C190.237 488.787 190.293 488.322 190.293 487.773Z" fill="#4B717A"/>
<path d="M197.045 530.266C197.045 535.559 196.467 539.148 193.549 543.004C189.828 547.945 176.634 552.252 171.179 544.567C168.487 540.738 167.994 536.375 167.881 531.899C171.785 526.48 191.801 525.129 197.045 530.266Z" fill="#FAFAFA"/>
<path d="M173.604 523.004H173.857C179.471 521.265 185.45 521.066 191.167 522.427C191.347 522.483 191.541 522.469 191.711 522.388C191.881 522.307 192.014 522.166 192.083 521.991C192.106 521.905 192.112 521.815 192.099 521.727C192.087 521.639 192.057 521.554 192.011 521.478C191.965 521.402 191.904 521.336 191.831 521.283C191.759 521.231 191.677 521.194 191.59 521.175C185.54 519.7 179.201 519.914 173.265 521.794C173.179 521.816 173.099 521.858 173.031 521.915C172.962 521.972 172.907 522.043 172.869 522.124C172.832 522.204 172.812 522.292 172.813 522.381C172.813 522.47 172.833 522.558 172.871 522.638C172.941 522.767 173.049 522.87 173.18 522.936C173.311 523.001 173.459 523.025 173.604 523.004Z" fill="#F0F0F0"/>
<path d="M191.111 516.037C191.246 516.032 191.377 515.992 191.491 515.92C191.605 515.848 191.697 515.748 191.76 515.629C191.795 515.547 191.813 515.459 191.811 515.37C191.809 515.281 191.788 515.193 191.749 515.113C191.71 515.033 191.655 514.962 191.586 514.905C191.517 514.848 191.437 514.807 191.351 514.784C182.583 511.589 173.491 515.094 173.026 515.234C172.942 515.263 172.864 515.31 172.799 515.371C172.733 515.432 172.682 515.506 172.647 515.589C172.612 515.671 172.596 515.76 172.598 515.849C172.6 515.939 172.621 516.026 172.66 516.107C172.759 516.269 172.913 516.39 173.094 516.45C173.274 516.509 173.47 516.502 173.647 516.431C173.731 516.431 182.569 513.011 190.731 515.98C190.851 516.031 190.982 516.051 191.111 516.037Z" fill="#F0F0F0"/>
<path d="M190.984 510.041C191.118 510.04 191.249 510.003 191.363 509.934C191.478 509.864 191.571 509.765 191.632 509.646C191.671 509.566 191.691 509.478 191.692 509.389C191.694 509.3 191.675 509.212 191.639 509.13C191.603 509.048 191.55 508.976 191.483 508.917C191.416 508.858 191.337 508.814 191.252 508.788C185.214 506.588 178.57 506.729 172.631 509.182C172.549 509.216 172.476 509.267 172.415 509.332C172.355 509.397 172.309 509.474 172.281 509.558C172.253 509.642 172.243 509.731 172.252 509.819C172.262 509.907 172.29 509.992 172.335 510.069C172.444 510.224 172.603 510.336 172.787 510.385C172.97 510.434 173.164 510.417 173.336 510.336C178.874 508.11 185.036 507.985 190.66 509.984C190.764 510.022 190.873 510.041 190.984 510.041Z" fill="#F0F0F0"/>
<path d="M190.829 503.299C190.962 503.3 191.092 503.265 191.206 503.198C191.32 503.131 191.414 503.035 191.478 502.919C191.516 502.838 191.537 502.75 191.538 502.661C191.539 502.572 191.521 502.484 191.485 502.402C191.449 502.321 191.395 502.248 191.328 502.189C191.261 502.13 191.183 502.086 191.097 502.06C182.09 498.485 172.773 502.454 172.336 502.623C172.252 502.653 172.175 502.7 172.112 502.762C172.048 502.825 171.999 502.9 171.969 502.983C171.938 503.067 171.925 503.156 171.933 503.244C171.94 503.333 171.967 503.419 172.011 503.496C172.111 503.657 172.267 503.776 172.448 503.831C172.63 503.885 172.826 503.871 172.998 503.791C173.097 503.791 182.132 499.935 190.491 503.242C190.598 503.288 190.714 503.307 190.829 503.299Z" fill="#ECECEC"/>
<path d="M180.173 278.688C180.173 314.439 185.12 386.011 185.12 386.011C185.571 390.417 191.407 409.854 191.816 425.731C192.478 451.207 191.449 468.872 191.449 468.872C191.449 468.872 177.354 474.093 167.247 470.082C167.247 470.082 154.279 418.82 150.882 402.212C146.836 382.506 137.237 343.673 137.237 343.673L130.471 395.906C130.471 395.906 132.585 414.499 130.471 429.869C129.061 440.327 125.1 467.76 125.1 467.76C125.1 467.76 111.596 472.081 100.545 468.576C100.545 468.576 96.1192 400.396 95.4567 390.74C94.7942 381.085 94.8787 331.16 97.2609 270.285L180.173 278.688Z" fill="#4B717A"/>
<path d="M137.236 343.728L131.598 309.948C124.521 309.537 117.809 306.669 112.625 301.841C112.625 301.841 113.499 309.638 128.61 314.635L133.797 342.715L130.47 396.018L137.236 343.728Z" fill="#3A565E"/>
<path d="M55.5372 193.801L47.277 159.049C45.9943 151.829 46.6427 148.451 48.2074 145.284C49.9411 141.807 50.3781 137.739 49.4337 135.769C47.4744 131.701 44.0209 126.113 43.0342 125.283C41.4695 123.974 38.2557 124.115 38.2557 124.115C34.2525 118.851 31.9548 118.668 30.3197 119.892C29.4823 120.432 28.8906 121.279 28.6718 122.25C28.4531 123.222 28.6247 124.24 29.1498 125.086C28.523 124.531 27.7027 124.245 26.8664 124.29C26.0301 124.335 25.2452 124.707 24.6814 125.325C22.2851 127.507 24.5122 130.491 24.5122 130.491C23.8394 130.102 23.0482 129.969 22.2851 130.118C21.522 130.267 20.8388 130.687 20.3621 131.3C19.8855 131.914 19.6477 132.679 19.6929 133.454C19.738 134.229 20.063 134.961 20.6077 135.516C20.0042 135.32 19.3492 135.355 18.7706 135.615C18.192 135.876 17.7313 136.342 17.4784 136.923C17.0448 137.756 16.8184 138.68 16.8184 139.618C16.8184 140.557 17.0448 141.481 17.4784 142.314C18.447 144.676 19.5628 146.974 20.8191 149.197C22.0567 151.795 23.7139 154.173 25.7245 156.234C27.4865 157.867 27.6415 161.414 28.304 165.383C29.5585 175.039 34.9573 207.609 34.9573 207.609L55.5372 193.801Z" fill="#FFBFA9"/>
<path d="M50.3081 170.056L48.6589 163.469C46.4288 166.379 43.4739 168.655 40.0887 170.07C36.4133 171.739 32.4121 172.571 28.375 172.505L29.2489 181.429C29.2489 181.429 45.1068 180.162 50.3081 170.056Z" fill="#FAFAFA"/>
<path d="M37.8051 130.631C36.4251 131.629 34.9295 132.456 33.3508 133.095C32.8119 133.312 32.2152 133.341 31.6574 133.178C31.0996 133.014 30.6135 132.668 30.2779 132.194C29.8127 131.589 34.7745 125.761 34.7745 125.761L38.2562 124.171C36.9224 124.339 35.6182 124.69 34.3798 125.212C32.5725 127.05 30.9354 129.048 29.4885 131.18C28.7133 132.349 30.8981 135.15 33.9992 133.658L34.2952 133.503V133.615C34.8441 134.788 35.068 136.085 34.9436 137.373C34.8732 138.162 34.7604 139.105 33.8301 139.245C33.3974 139.292 32.9605 139.209 32.5755 139.006C32.2731 138.868 31.989 138.693 31.7298 138.485C31.5072 138.274 31.2432 138.111 30.9545 138.007C30.884 138.007 30.884 138.119 30.9545 138.176C31.0955 138.626 31.2928 139.062 31.4479 139.499C31.9412 140.906 32.209 143.032 30.5316 143.609C30.1316 143.756 29.7017 143.803 29.2793 143.746C28.8568 143.69 28.4545 143.532 28.1071 143.285C27.5856 142.933 27.1204 142.469 26.5566 142.145C26.4579 142.145 26.3029 142.06 26.2606 142.145C26.254 142.187 26.254 142.23 26.2606 142.272C26.7747 143.221 27.1317 144.248 27.3178 145.312C27.3715 145.656 27.3474 146.008 27.2474 146.341C27.1474 146.675 26.974 146.982 26.7398 147.24C26.3355 147.452 25.8856 147.563 25.4289 147.563C24.9722 147.563 24.5224 147.452 24.118 147.24L23.7656 147.071L23.8361 147.17C24.0056 147.353 24.1894 147.522 24.3858 147.676C24.8816 148.026 25.4876 148.185 26.0915 148.123C26.6954 148.061 27.2563 147.782 27.6702 147.339C28.0513 146.957 28.3109 146.472 28.4162 145.943C28.5216 145.415 28.468 144.867 28.2622 144.369C28.7084 144.704 29.2362 144.915 29.7912 144.98C30.3462 145.044 30.9083 144.959 31.4197 144.735C33.7737 143.932 33.5059 142.074 32.8293 140.202C33.3177 140.341 33.835 140.341 34.3234 140.202C32.9841 143.195 32.4544 146.485 32.787 149.745C33.3139 146.112 34.5035 142.605 36.2968 139.4C37.7789 136.919 39.6437 134.686 41.8224 132.785C41.8224 132.785 38.3548 131.856 37.8051 130.631ZM37.0439 135.375C36.9512 135.352 36.8613 135.319 36.7761 135.276C36.4928 135.103 36.2403 134.885 36.029 134.629C35.6705 134.138 35.2846 133.668 34.8732 133.221C37.2413 132.053 37.9461 131.617 37.9461 131.617C38.349 132.027 38.8724 132.298 39.4402 132.391C38.5694 133.326 37.7685 134.323 37.0439 135.375Z" fill="#FFAC92"/>
<path d="M110.808 168.972C105.197 169.903 99.7545 171.653 94.6537 174.166C88.7441 176.923 83.0846 180.187 77.7387 183.92C67.9844 190.282 59.104 195.644 59.104 195.644L50.3082 167.775C47.3481 173.152 37.3118 177.91 29.3477 178.881C29.3477 178.881 33.5764 213.646 36.8607 224.076C39.3275 231.831 45.6566 233.408 54.1845 230.832C59.5974 229.199 96.6976 212.774 106.974 207.805C106.974 207.749 113.133 172.744 110.808 168.972Z" fill="#2FB0F9"/>
<path opacity="0.2" d="M110.808 168.972C105.197 169.903 99.7545 171.653 94.6537 174.166C88.7441 176.923 83.0846 180.187 77.7387 183.92C67.9844 190.282 59.104 195.644 59.104 195.644L50.3082 167.775C47.3481 173.152 37.3118 177.91 29.3477 178.881C29.3477 178.881 33.5764 213.646 36.8607 224.076C39.3275 231.831 45.6566 233.408 54.1845 230.832C59.5974 229.199 96.6976 212.774 106.974 207.805C106.974 207.749 113.133 172.744 110.808 168.972Z" fill="#004494"/>
<path d="M101.969 195.335C102.857 188.945 103.491 180.289 108.072 174.94C112.569 170.872 120.885 167.762 129.047 164.524L150.275 166.157C156.505 167.762 179.749 174.968 179.749 174.968L181.159 225.428C181.159 225.428 182.71 257.8 182.23 278.913C164.117 290.384 124.719 294.1 99.9669 275.352C99.248 257.899 100.249 207.834 101.969 195.335Z" fill="#F0F0F0"/>
<path d="M112.766 116.95C110.243 109.377 114.176 99.9331 118.405 95.7105C124.494 89.616 133.304 87.5188 146.159 89.4471C155.928 90.8546 165.231 95.8231 166.189 106.056C173.886 109.096 171.828 121.961 169.389 127.506C164.399 138.766 155.674 148.155 155.026 154.066L112.766 116.95Z" fill="#1A2E35"/>
<path d="M128.991 156.431V166.494C120.308 178.88 147.315 179.894 156.604 166.34L156.365 143.242" fill="#FFBFA9"/>
<path d="M169.516 130.532C167.402 124.902 162.017 126.661 160.269 128.181C158.521 129.702 156.463 132.657 155.054 132.108C154.33 131.787 153.696 131.295 153.205 130.675C152.714 130.055 152.381 129.325 152.235 128.547C151.321 125.05 151.062 121.414 151.473 117.822C150.114 117.001 148.935 115.914 148.006 114.627C145.99 111.967 146.061 108.997 146.202 106.281C135.305 101.805 120.914 101.988 115.938 105.183C112.851 109.659 111.794 120.665 110.807 126.872C109.71 132.591 109.581 138.452 110.426 144.213C111.498 149.956 114.387 154.333 119.49 155.586C122.185 156.095 124.922 156.349 127.665 156.346C144.158 157.05 153.715 152.94 156.379 143.242C156.379 143.242 159.198 147.113 164.766 144.171C167.009 142.791 168.706 140.68 169.571 138.195C170.437 135.711 170.417 133.004 169.516 130.532Z" fill="#FFBFA9"/>
<path d="M133.98 125.268C133.346 126.676 135.066 125.817 136.419 126.493C137.772 127.168 138.223 129.068 138.858 127.731C139.158 127.072 139.193 126.322 138.954 125.637C138.715 124.953 138.221 124.387 137.575 124.058C137.261 123.895 136.917 123.797 136.564 123.77C136.211 123.743 135.856 123.788 135.52 123.901C135.185 124.014 134.876 124.193 134.611 124.428C134.347 124.663 134.132 124.949 133.98 125.268Z" fill="#1A2E35"/>
<path d="M114.923 123.298C114.838 124.776 116.135 123.397 117.643 123.523C119.152 123.65 120.279 125.226 120.364 123.748C120.392 123.025 120.139 122.318 119.659 121.775C119.179 121.233 118.507 120.896 117.784 120.835C117.433 120.8 117.078 120.837 116.741 120.944C116.404 121.05 116.092 121.224 115.825 121.454C115.557 121.684 115.339 121.967 115.184 122.284C115.029 122.601 114.94 122.946 114.923 123.298Z" fill="#1A2E35"/>
<path d="M114.176 117.752L120.533 116.345C120.464 115.927 120.311 115.527 120.083 115.17C119.855 114.813 119.556 114.506 119.206 114.268C118.855 114.03 118.459 113.865 118.043 113.784C117.627 113.703 117.198 113.708 116.784 113.797C115.922 113.993 115.169 114.514 114.684 115.251C114.198 115.988 114.016 116.884 114.176 117.752Z" fill="#1A2E35"/>
<path d="M136.884 118.33L142.522 121.877C142.771 121.517 142.944 121.111 143.031 120.682C143.117 120.253 143.116 119.812 143.026 119.384C142.937 118.956 142.761 118.551 142.509 118.193C142.258 117.835 141.936 117.532 141.564 117.302C140.798 116.853 139.89 116.709 139.022 116.899C138.154 117.09 137.39 117.601 136.884 118.33Z" fill="#1A2E35"/>
<path d="M134.46 138.344L124.86 141.553C125.027 142.253 125.344 142.908 125.79 143.473C126.236 144.038 126.8 144.5 127.443 144.825C128.085 145.151 128.791 145.332 129.511 145.358C130.231 145.384 130.948 145.252 131.612 144.973C134.22 144.016 135.193 141.285 134.46 138.344Z" fill="#C76668"/>
<path d="M131.613 144.974C130.903 145.244 130.145 145.364 129.386 145.325C129.545 144.137 130.138 143.049 131.051 142.27C131.964 141.49 133.133 141.075 134.333 141.103H134.601C134.511 141.961 134.184 142.777 133.656 143.461C133.129 144.144 132.421 144.668 131.613 144.974Z" fill="#FFAC92"/>
<path d="M127.947 121.876L125.128 137.007L117.305 133.235L127.947 121.876Z" fill="#FFAC92"/>
<path d="M128.99 156.416C134.741 156.064 142.071 155.135 145.905 152.855C148.46 151.08 150.668 148.853 152.418 146.282C151.698 149.229 150.204 151.93 148.09 154.108C145.031 157.219 142.79 157.542 139.139 158.471C135.812 159.184 132.447 159.706 129.061 160.034L128.99 156.416Z" fill="#FFAC92"/>
<path d="M96.1476 212.76C98.4593 191.647 103.971 176.755 109.849 169.127C115.29 167.607 119.406 166.312 128.61 163.919V164.749C126.717 166.24 125.116 168.068 123.888 170.14C121.28 174.039 118.25 180.654 115.205 192.069C111.103 207.552 109.059 242.261 108.848 260.967C108.637 279.673 107.438 309.006 107.438 309.006C107.438 309.006 96.6832 307.26 92.68 301.743C92.6518 301.785 94.442 228.679 96.1476 212.76Z" fill="#2FB0F9"/>
<path d="M109.27 245.991C106.733 234.069 101.715 229.917 102.307 225.807C102.899 221.697 110.948 208.312 110.948 208.312C109.387 207.195 107.917 205.957 106.55 204.61C105.394 202.682 108.058 192.829 114.373 181.569C119.814 171.717 122.633 163.103 129.047 160.034V166.495C129.047 166.495 125.058 168.944 117.77 193.435C112.766 209.987 111.215 227.539 109.27 245.991Z" fill="#4B717A"/>
<path d="M149.951 187.199C151.901 179.124 154.397 171.191 157.422 163.454C159.176 164.178 160.975 164.79 162.807 165.284C163.904 165.696 165.088 165.828 166.25 165.669C167.411 165.509 168.515 165.062 169.46 164.369C175.972 167.367 191.76 180.147 190.125 191.112L183.246 239.277L185.233 300.419C175.127 316.099 142.833 314.607 142.833 314.607C142.833 314.607 142.114 292.481 143.087 249.355C143.622 225.202 147.386 198.079 149.951 187.199Z" fill="#2FB0F9"/>
<path d="M156.463 157.965V162.047C155.054 166.086 151.375 176.22 150.402 180.161C147.583 191.633 143.03 208.199 143.086 249.383C145.751 235.308 155.434 233.675 155.773 230.199C156.111 226.722 150.825 215.04 150.092 212.534C149.359 210.029 155.914 211.253 157.873 209.044C159.832 206.834 162.807 165.27 162.807 165.27C161.446 164.326 160.341 163.058 159.593 161.582C158.282 159.049 157.873 158.443 156.463 157.965Z" fill="#4B717A"/>
<path d="M243.956 45.4764C243.622 44.9377 243.098 44.5445 242.486 44.3749C241.875 44.2054 241.222 44.272 240.658 44.5615C241.085 43.9185 241.279 43.1489 241.207 42.3807C241.135 41.6125 240.802 40.8919 240.263 40.3389C239.681 39.8337 238.942 39.5451 238.172 39.522C237.401 39.4989 236.646 39.7428 236.034 40.2123C236.034 40.2123 237.726 36.9468 235.034 35.1734C234.382 34.6611 233.555 34.4243 232.73 34.5137C231.905 34.6032 231.148 35.0118 230.622 35.6519C231.004 34.7384 231.012 33.7112 230.643 32.7922C230.273 31.8732 229.557 31.136 228.648 30.7397C226.844 29.7826 224.617 30.3174 221.6 36.1164C221.6 36.1164 218.415 36.4964 217.09 38.0306C216.244 39.0018 213.763 45.0682 212.494 49.2907C211.874 51.3879 212.057 53.8792 214.567 58.3551C216.469 61.7332 217.639 65.1253 217.541 72.4303L208.491 110.433L233.695 121.693C233.695 121.693 235.978 79.3271 236.401 75.8787C237.19 69.5167 237.966 67.4336 239.432 65.5335C240.898 63.6333 241.419 61.9443 242.744 58.144C243.657 55.7485 244.351 53.2752 244.816 50.7546C245.085 49.8675 245.148 48.9308 244.999 48.016C244.85 47.1012 244.493 46.2325 243.956 45.4764Z" fill="#FFBFA9"/>
<path d="M212.354 91.1222L214.101 83.1416C214.101 83.1416 217.597 85.9566 224.899 86.5478C228.596 87.0017 232.344 86.816 235.978 85.9989L235.541 94.9366C235.541 94.9366 222.714 99.4265 212.354 91.1222Z" fill="#FAFAFA"/>
<path d="M219.443 45.3075C221.892 46.8264 224.081 48.7272 225.927 50.9375C228.201 53.7917 229.927 57.0415 231.016 60.5227C230.824 57.2719 229.784 54.1277 228 51.402C228.49 51.438 228.98 51.3304 229.409 51.0923C229.113 53.0347 229.141 54.9067 231.58 55.3149C232.116 55.4522 232.679 55.445 233.211 55.2942C233.744 55.1433 234.227 54.8542 234.611 54.4563C234.484 54.9773 234.517 55.5242 234.705 56.0262C234.894 56.5282 235.229 56.962 235.668 57.2713C236.144 57.6427 236.738 57.8301 237.341 57.7991C237.945 57.7681 238.517 57.5207 238.952 57.1024C239.113 56.9174 239.259 56.7197 239.389 56.5113C239.389 56.5113 239.389 56.5113 239.389 56.3987C239.389 56.2861 239.389 56.3987 239.389 56.3987L239.079 56.6098C238.719 56.8854 238.298 57.0702 237.851 57.1486C237.405 57.227 236.946 57.1967 236.513 57.0602C236.244 56.8468 236.026 56.575 235.877 56.2653C235.728 55.9557 235.652 55.6162 235.654 55.2727C235.656 54.1994 235.837 53.1339 236.189 52.1198C236.199 52.0978 236.205 52.0737 236.205 52.0495C236.205 52.0252 236.199 52.0012 236.189 51.9791C236.189 51.8806 235.992 51.9791 235.907 51.9791C235.414 52.3873 235.033 52.908 234.498 53.3866C234.196 53.6826 233.826 53.9013 233.421 54.0238C233.016 54.1464 232.588 54.1692 232.172 54.0904C230.438 53.7807 230.354 51.5991 230.621 50.2056C230.706 49.7552 230.819 49.2907 230.903 48.7981C230.903 48.7981 230.903 48.6433 230.833 48.6433C230.565 48.7978 230.33 49.0034 230.142 49.2485C229.919 49.4928 229.669 49.7101 229.395 49.896C229.051 50.151 228.639 50.298 228.211 50.3182C227.267 50.3182 227.013 49.4174 226.801 48.6714C226.47 47.4262 226.47 46.1163 226.801 44.8711C226.801 44.8711 226.801 44.7867 226.801 44.7585L227.126 44.8571C230.41 45.8282 232.087 42.7317 231.157 41.7183C230.227 40.7049 226.209 36.5527 225.082 36.1868C223.883 35.9325 222.644 35.9325 221.445 36.1868L224.842 36.5668C224.842 36.5668 230.706 41.8027 230.48 42.5487C230.292 43.1176 229.901 43.5972 229.38 43.8958C228.86 44.1944 228.248 44.2911 227.661 44.1674C226.016 43.7827 224.422 43.2063 222.911 42.4502C222.714 43.717 219.443 45.3075 219.443 45.3075ZM221.685 44.4207C222.228 44.2342 222.697 43.8791 223.024 43.4073C223.024 43.4073 223.785 43.731 226.294 44.5052C225.963 45.0032 225.662 45.5202 225.392 46.0534C225.227 46.3506 225.007 46.6135 224.743 46.8276C224.668 46.8781 224.588 46.9206 224.504 46.9543C223.632 46.0371 222.69 45.19 221.685 44.4207Z" fill="#FFAC92"/>
<path d="M169.46 164.384C173.388 160.977 177.547 157.845 181.906 155.01C187.136 151.463 203.36 128.154 203.36 128.154L212.353 87.8008C215.299 92.0233 229.846 93.8531 235.978 91.6574C235.978 91.6574 236.091 106.901 234.667 127.605C234.005 137.261 233.103 138.345 225.237 152.124C220.881 159.767 214.51 168.282 206.715 181.386C200.823 191.239 189.405 208.96 186.488 216.574C185.698 218.629 185.261 221.487 182.343 221.092C177.847 220.473 172.349 205.061 170.207 198.263C166.147 185.37 167.895 169.76 169.46 164.384Z" fill="#2FB0F9"/>
<path opacity="0.2" d="M169.46 164.384C173.388 160.977 177.547 157.845 181.906 155.01C187.136 151.463 203.36 128.154 203.36 128.154L212.353 87.8008C215.299 92.0233 229.846 93.8531 235.978 91.6574C235.978 91.6574 236.091 106.901 234.667 127.605C234.005 137.261 233.103 138.345 225.237 152.124C220.881 159.767 214.51 168.282 206.715 181.386C200.823 191.239 189.405 208.96 186.488 216.574C185.698 218.629 185.261 221.487 182.343 221.092C177.847 220.473 172.349 205.061 170.207 198.263C166.147 185.37 167.895 169.76 169.46 164.384Z" fill="#004494"/>
<path d="M99.3533 58.8027C107.776 50.3928 107.776 36.7576 99.3533 28.3477C90.931 19.9377 77.2757 19.9377 68.8534 28.3477C60.4311 36.7576 60.4311 50.3928 68.8534 58.8027C77.2757 67.2127 90.931 67.2127 99.3533 58.8027Z" fill="#F7D33C"/>
<path d="M84.1097 16.3835C83.8531 16.3853 83.5986 16.3365 83.361 16.2397C83.1233 16.1429 82.9072 16.0001 82.7251 15.8196C82.543 15.639 82.3984 15.4243 82.2998 15.1877C82.2012 14.9511 82.1504 14.6974 82.1504 14.4411V1.95645C82.1504 1.43756 82.3568 0.939935 82.7243 0.57303C83.0917 0.206125 83.5901 0 84.1097 0C84.6294 0 85.1277 0.206125 85.4952 0.57303C85.8626 0.939935 86.069 1.43756 86.069 1.95645V14.4411C86.0653 14.9575 85.8572 15.4516 85.4902 15.8154C85.1232 16.1793 84.6269 16.3835 84.1097 16.3835Z" fill="#F7D33C"/>
<path d="M69.5213 20.2962C69.1755 20.2956 68.8359 20.2043 68.5365 20.0313C68.2372 19.8584 67.9886 19.61 67.8157 19.3109L61.5712 8.44491C61.3133 7.99695 61.2441 7.46502 61.3789 6.96614C61.5137 6.46725 61.8415 6.04228 62.2901 5.78471C62.7387 5.52713 63.2714 5.45806 63.7711 5.59268C64.2707 5.7273 64.6963 6.05458 64.9542 6.50254L71.2128 17.3123C71.3478 17.5375 71.436 17.7876 71.4721 18.0476C71.5083 18.3076 71.4917 18.5723 71.4233 18.8257C71.3549 19.0792 71.2361 19.3163 71.074 19.523C70.9119 19.7297 70.7098 19.9017 70.4798 20.0288C70.1894 20.2006 69.8588 20.2929 69.5213 20.2962Z" fill="#F7D33C"/>
<path d="M58.8225 30.9652C58.4802 30.9643 58.1444 30.872 57.8499 30.6977L47.0243 24.4624C46.6487 24.1716 46.3917 23.7543 46.3014 23.2884C46.211 22.8224 46.2933 22.3396 46.533 21.9297C46.7728 21.5199 47.1535 21.211 47.6043 21.0607C48.0552 20.9104 48.5453 20.9288 48.9836 21.1126L59.8092 27.3619C60.1806 27.5787 60.4702 27.9116 60.6334 28.3091C60.7965 28.7066 60.8241 29.1467 60.7118 29.5614C60.5996 29.9761 60.3538 30.3424 60.0123 30.6038C59.6708 30.8651 59.2527 31.0069 58.8225 31.0074V30.9652Z" fill="#F7D33C"/>
<path d="M54.9738 45.533H42.4144C41.8948 45.533 41.3964 45.3269 41.029 44.96C40.6615 44.5931 40.4551 44.0954 40.4551 43.5766C40.4551 43.0577 40.6615 42.5601 41.029 42.1931C41.3964 41.8262 41.8948 41.6201 42.4144 41.6201H54.9738C55.4935 41.6201 55.9918 41.8262 56.3593 42.1931C56.7267 42.5601 56.9331 43.0577 56.9331 43.5766C56.9331 44.0954 56.7267 44.5931 56.3593 44.96C55.9918 45.3269 55.4935 45.533 54.9738 45.533Z" fill="#F7D33C"/>
<path d="M48.0109 66.3501C47.5807 66.3496 47.1626 66.2078 46.8211 65.9464C46.4797 65.6851 46.2338 65.3188 46.1216 64.9041C46.0093 64.4894 46.0369 64.0493 46.2 63.6518C46.3632 63.2543 46.6528 62.9214 47.0242 62.7046L57.7934 56.4552C58.2439 56.1958 58.7792 56.1257 59.2814 56.2603C59.7837 56.3949 60.2118 56.7233 60.4717 57.1731C60.7315 57.6229 60.8017 58.1574 60.6669 58.6589C60.5321 59.1604 60.2033 59.5879 59.7528 59.8474L48.9835 66.153C48.6823 66.3028 48.3468 66.3708 48.0109 66.3501Z" fill="#F7D33C"/>
<path d="M63.2621 81.636C62.918 81.6387 62.5793 81.5502 62.2807 81.3795C61.982 81.2088 61.734 80.962 61.5621 80.6644C61.3901 80.3667 61.3003 80.0288 61.3018 79.6852C61.3033 79.3416 61.3961 79.0045 61.5706 78.7084L67.8151 67.8987C68.0749 67.4488 68.503 67.1205 69.0053 66.9859C69.5076 66.8513 70.0428 66.9214 70.4933 67.1808C70.9438 67.4403 71.2726 67.8678 71.4074 68.3693C71.5422 68.8708 71.472 69.4053 71.2122 69.8551L64.9536 80.6648C64.7812 80.9602 64.5343 81.2052 64.2376 81.3756C63.9408 81.546 63.6045 81.6358 63.2621 81.636Z" fill="#F7D33C"/>
<path d="M84.1097 87.153C83.8531 87.1549 83.5986 87.106 83.361 87.0092C83.1233 86.9124 82.9072 86.7696 82.7251 86.5891C82.543 86.4085 82.3984 86.1938 82.2998 85.9572C82.2012 85.7206 82.1504 85.4669 82.1504 85.2106V72.726C82.1504 72.2071 82.3568 71.7095 82.7243 71.3426C83.0917 70.9757 83.5901 70.7695 84.1097 70.7695C84.6294 70.7695 85.1277 70.9757 85.4952 71.3426C85.8626 71.7095 86.069 72.2071 86.069 72.726V85.2106C86.0653 85.7271 85.8572 86.2211 85.4902 86.585C85.1232 86.9488 84.6269 87.153 84.1097 87.153Z" fill="#F7D33C"/>
<path d="M104.958 81.6363C104.614 81.6357 104.276 81.5459 103.977 81.3757C103.678 81.2054 103.428 80.9606 103.252 80.6651L97.008 69.8554C96.8577 69.633 96.7549 69.3822 96.7058 69.1185C96.6568 68.8548 96.6625 68.5838 96.7227 68.3225C96.783 68.0611 96.8964 67.8148 97.0559 67.5991C97.2155 67.3833 97.4178 67.2026 97.6502 67.0681C97.8827 66.9337 98.1403 66.8484 98.4071 66.8176C98.674 66.7868 98.9443 66.8111 99.2013 66.8891C99.4584 66.967 99.6966 67.0968 99.9013 67.2705C100.106 67.4443 100.273 67.6582 100.391 67.8989L106.65 78.7087C106.906 79.1592 106.974 79.6926 106.84 80.1931C106.705 80.6937 106.379 81.1211 105.931 81.3829C105.633 81.5469 105.298 81.634 104.958 81.6363Z" fill="#F7D33C"/>
<path d="M120.21 66.3504C119.867 66.3531 119.53 66.2605 119.237 66.083L108.412 59.8477C107.986 59.5779 107.681 59.1546 107.559 58.6658C107.438 58.1771 107.51 57.6605 107.761 57.2235C108.012 56.7866 108.421 56.4629 108.905 56.3199C109.388 56.1768 109.908 56.2254 110.357 56.4556L121.225 62.7049C121.595 62.9211 121.884 63.2527 122.048 63.6488C122.211 64.045 122.24 64.4837 122.129 64.8977C122.019 65.3116 121.775 65.678 121.436 65.9404C121.097 66.2028 120.681 66.3469 120.252 66.3504H120.21Z" fill="#F7D33C"/>
<path d="M125.791 45.533H113.288C112.769 45.533 112.27 45.3269 111.903 44.96C111.536 44.5931 111.329 44.0954 111.329 43.5766C111.329 43.0577 111.536 42.5601 111.903 42.1931C112.27 41.8262 112.769 41.6201 113.288 41.6201H125.791C126.311 41.6201 126.809 41.8262 127.177 42.1931C127.544 42.5601 127.751 43.0577 127.751 43.5766C127.751 44.0954 127.544 44.5931 127.177 44.96C126.809 45.3269 126.311 45.533 125.791 45.533Z" fill="#F7D33C"/>
<path d="M109.384 30.965C108.955 30.9615 108.539 30.8174 108.2 30.555C107.86 30.2925 107.617 29.9262 107.506 29.5122C107.396 29.0983 107.425 28.6595 107.588 28.2634C107.752 27.8673 108.041 27.5357 108.411 27.3195L119.237 21.1124C119.677 20.9076 120.178 20.8737 120.643 21.0172C121.107 21.1607 121.501 21.4714 121.749 21.8889C121.997 22.3065 122.08 22.801 121.983 23.2766C121.886 23.7521 121.616 24.1747 121.224 24.4623L110.399 30.6975C110.093 30.8814 109.741 30.9741 109.384 30.965Z" fill="#F7D33C"/>
<path d="M98.6712 20.2963C98.3284 20.299 97.9916 20.2064 97.6985 20.0288C97.4758 19.9019 97.2805 19.7322 97.1237 19.5295C96.9669 19.3269 96.8518 19.0953 96.7849 18.848C96.7181 18.6008 96.7009 18.3428 96.7344 18.0889C96.7678 17.835 96.8511 17.5902 96.9797 17.3686L103.224 6.55892C103.491 6.13761 103.909 5.83395 104.393 5.70994C104.876 5.58593 105.389 5.65093 105.826 5.89166C106.263 6.1324 106.592 6.53071 106.745 7.00524C106.898 7.47978 106.864 7.99475 106.649 8.44499L100.391 19.2547C100.226 19.5683 99.9794 19.8311 99.6763 20.0146C99.3732 20.1982 99.0256 20.2956 98.6712 20.2963Z" fill="#F7D33C"/>
</g>
<defs>
<clipPath id="clip0">
<rect width="245" height="551" fill="white"/>
</clipPath>
</defs>
</svg>
