<svg width="213" height="567" viewBox="0 0 213 567" fill="none" xmlns="http://www.w3.org/2000/svg">
<path d="M75.2939 494.138C75.0328 487.725 71.3489 422.619 71.3489 422.619L103.779 445.994C98.7173 482.937 96.5272 494.24 96.2372 500.392C96.3488 500.911 96.383 501.444 96.3387 501.974C96.0341 509.228 87.2014 512.914 80.2251 517.557C74.2879 521.655 68.0144 525.242 61.4719 528.28C56.4682 530.456 46.4752 530.326 45.3584 527.279C53.8285 521.576 63.6185 515.381 70.4352 508.779C73.6985 505.63 75.613 501.843 75.2939 494.138Z" fill="#FFBFA9"/>
<path d="M35.4812 534.751C35.0896 534.751 34.321 539.104 36.395 541.092C38.7881 543.355 45.9094 547.186 55.5543 546.257C65.1993 545.329 70.5076 542.514 74.4816 539.38C78.4556 536.246 83.996 531.82 88.3761 531.008C92.4516 530.239 96.8898 528.541 98.2386 527.322C99.5874 526.103 99.689 520.444 99.689 520.444L35.4812 534.751Z" fill="#1A2E35"/>
<path d="M96.353 498.607C96.6853 498.626 96.9986 498.769 97.2299 499.008C97.4612 499.248 97.5935 499.566 97.6003 499.899C97.8323 501.466 98.1224 506.022 98.659 508.605C99.3987 512.189 99.9934 519.531 99.3552 522.404C98.7171 525.277 92.1034 527.047 87.7523 528.512C82.7121 530.542 78.0118 533.331 73.8143 536.783C69.1586 540.396 59.5282 543.864 53.2771 543.733C43.7192 543.53 37.6277 540.672 35.8728 537.117C33.6827 532.764 34.5239 529.659 45.6917 524.885C49.9696 522.824 54.1377 520.543 58.1794 518.051C64.6037 514.107 69.6656 508.289 72.683 501.379C72.9705 500.455 73.5574 499.654 74.3509 499.101C75.0315 498.838 75.7779 498.797 76.483 498.985C78.3104 499.318 83.5753 500.174 85.1852 501.045C86.7951 501.916 88.695 502.714 88.5935 504.629C88.5238 505.298 88.3577 505.952 88.1004 506.573C87.9554 506.951 87.8393 507.473 88.1004 507.72C88.3615 507.966 88.8401 507.72 89.1447 507.458C90.2649 506.376 91.2978 505.207 92.2339 503.962C92.7687 503.313 93.3771 502.728 94.0469 502.22C94.7074 501.866 95.3466 501.474 95.9614 501.045C96.1363 500.24 96.2671 499.427 96.353 498.607Z" fill="#4B717A"/>
<path d="M45.4021 524.855C59.1951 526.306 64.9675 535.404 63.2126 541.963C60.0279 543.063 56.6899 543.656 53.3211 543.718C43.7632 543.515 37.2801 540.642 35.5106 537.087C33.4366 532.923 35.4526 528.294 45.4021 524.855Z" fill="#FAFAFA"/>
<path d="M64.1693 526.858C64.3267 526.861 64.4805 526.81 64.6044 526.713C64.676 526.659 64.7362 526.591 64.7815 526.513C64.8268 526.436 64.8564 526.35 64.8685 526.261C64.8806 526.172 64.8751 526.082 64.8522 525.995C64.8292 525.908 64.7894 525.826 64.7349 525.755C63.2027 524.007 61.3095 522.613 59.186 521.668C57.0626 520.724 54.7595 520.252 52.4359 520.285C52.3463 520.292 52.259 520.317 52.179 520.358C52.0991 520.399 52.0281 520.456 51.9701 520.525C51.9121 520.594 51.8683 520.673 51.8412 520.759C51.8141 520.845 51.8043 520.935 51.8122 521.025C51.8159 521.114 51.8373 521.201 51.8753 521.282C51.9132 521.362 51.9669 521.434 52.0331 521.494C52.0993 521.553 52.1768 521.599 52.2609 521.628C52.345 521.657 52.4341 521.669 52.5229 521.663C54.6211 521.652 56.698 522.084 58.6176 522.932C60.5372 523.78 62.256 525.024 63.6617 526.582C63.7216 526.662 63.798 526.728 63.8855 526.775C63.9731 526.823 64.0699 526.851 64.1693 526.858Z" fill="#F0F0F0"/>
<path d="M69.7532 523.492C69.9103 523.493 70.0633 523.442 70.1883 523.347C70.3297 523.235 70.4223 523.073 70.4466 522.895C70.471 522.716 70.4252 522.535 70.3188 522.389C68.7841 520.645 66.8904 519.252 64.7676 518.308C62.6447 517.364 60.3428 516.89 58.0198 516.919C57.8402 516.938 57.6748 517.025 57.5585 517.163C57.4421 517.301 57.3839 517.479 57.3961 517.659C57.3997 517.75 57.4216 517.838 57.4604 517.92C57.4992 518.001 57.5542 518.074 57.622 518.134C57.6898 518.194 57.769 518.239 57.8549 518.267C57.9407 518.295 58.0313 518.306 58.1213 518.298C60.2177 518.285 62.2929 518.716 64.2104 519.564C66.1278 520.412 67.8439 521.657 69.2456 523.217C69.3055 523.296 69.3819 523.362 69.4694 523.41C69.557 523.457 69.6538 523.485 69.7532 523.492Z" fill="#F0F0F0"/>
<path d="M75.2649 519.183C75.422 519.184 75.575 519.133 75.7 519.037C75.8414 518.926 75.934 518.764 75.9583 518.585C75.9827 518.406 75.9369 518.225 75.8305 518.08C74.2924 516.335 72.396 514.943 70.2709 513.999C68.1458 513.055 65.842 512.581 63.517 512.61C63.4273 512.617 63.34 512.642 63.2601 512.683C63.1801 512.724 63.1091 512.781 63.0511 512.85C62.9932 512.919 62.9494 512.998 62.9223 513.084C62.8952 513.17 62.8853 513.26 62.8933 513.35C62.897 513.439 62.9184 513.526 62.9563 513.606C62.9943 513.687 63.0479 513.759 63.1141 513.819C63.1804 513.878 63.2578 513.924 63.3419 513.953C63.4261 513.982 63.5152 513.994 63.604 513.988C65.7026 513.974 67.7804 514.405 69.7004 515.253C71.6203 516.101 73.3389 517.346 74.7428 518.907C74.8043 518.988 74.8829 519.055 74.9732 519.103C75.0634 519.15 75.163 519.178 75.2649 519.183Z" fill="#F0F0F0"/>
<path d="M80.7041 514.859C80.8567 514.86 81.0052 514.809 81.1247 514.714C81.201 514.656 81.2646 514.583 81.3114 514.499C81.3582 514.416 81.3873 514.323 81.3968 514.228C81.4063 514.133 81.3961 514.036 81.3668 513.945C81.3374 513.854 81.2896 513.77 81.2262 513.698C78.7171 510.201 72.8141 507.749 67.7669 508.126C67.5873 508.145 67.4219 508.232 67.3055 508.37C67.1892 508.508 67.131 508.686 67.1432 508.866C67.1487 508.955 67.1719 509.042 67.2116 509.122C67.2512 509.202 67.3065 509.273 67.3741 509.331C67.4417 509.389 67.5203 509.434 67.6052 509.461C67.6901 509.488 67.7796 509.498 67.8684 509.49C72.408 509.156 77.9049 511.42 80.1384 514.511C80.1941 514.613 80.2756 514.699 80.3749 514.76C80.4741 514.821 80.5876 514.855 80.7041 514.859Z" fill="#F0F0F0"/>
<path d="M134.034 442.687L168.248 436.97C168.698 457.284 167.248 484.257 166.58 502.946C166.45 506.515 168.031 530.718 166.812 538.132C165.043 549.261 150.104 548.289 149.002 541.629C147.9 534.969 147.392 506.951 147.204 504.034C146.768 491.846 140.242 471.256 135.818 449.477C135.557 448.403 134.237 443.731 134.034 442.687Z" fill="#FFBFA9"/>
<path d="M143.592 546.403C143.592 552.918 144.448 557.271 146.797 561.232C149.147 565.193 154.049 566.659 159.038 565.832C164.027 565.004 170.641 562.393 172.469 556.893C174.296 551.394 174.238 547.535 173.513 541.455L143.592 546.403Z" fill="#1A2E35"/>
<path d="M166.609 500.871C168.654 501.132 168.581 509.577 169.19 518.399C169.828 527.801 172.744 531.85 173.367 539.583C174.078 548.405 173.367 552.279 169.466 557.372C165.564 562.465 152.99 566.934 147.435 559.012C142.91 552.555 143.084 545.692 144.186 536.986C145.25 529.624 145.894 522.207 146.115 514.772C146.115 508.199 145.143 502.046 146.985 501.422C146.985 502.395 147.101 503.628 147.188 504.571C147.275 505.514 147.188 508.924 148.363 508.924C148.513 508.111 148.577 507.284 148.551 506.457C148.515 506.081 148.56 505.701 148.683 505.343C148.805 504.985 149.003 504.658 149.262 504.382C150.257 503.811 151.367 503.469 152.511 503.381C154.556 503.135 156.601 502.946 158.675 502.888C159.69 502.888 160.72 502.888 161.75 502.961C162.629 502.995 163.498 503.156 164.331 503.439C164.563 503.513 164.776 503.635 164.956 503.798C165.136 503.96 165.279 504.16 165.376 504.382C165.448 504.717 165.448 505.063 165.376 505.398C165.337 506.002 165.386 506.608 165.521 507.197C165.521 507.459 165.753 507.792 166.057 507.749C166.164 507.714 166.258 507.646 166.323 507.555C166.388 507.463 166.422 507.353 166.42 507.241C166.507 506.182 166.42 505.398 166.42 504.179C166.42 503.599 166.42 503.062 166.507 502.496C166.594 501.93 166.609 501.437 166.609 500.871Z" fill="#4B717A"/>
<path d="M173.6 544.676C173.6 550.132 172.991 553.832 169.988 557.822C166.174 562.915 152.584 567.341 146.971 559.418C144.201 555.472 143.693 550.974 143.577 546.36C147.595 540.773 168.248 539.38 173.6 544.676Z" fill="#FAFAFA"/>
<path d="M149.48 537.189H149.727C155.504 535.404 161.654 535.199 167.537 536.595C167.722 536.652 167.922 536.638 168.097 536.554C168.271 536.471 168.408 536.325 168.48 536.145C168.506 536.056 168.513 535.963 168.501 535.871C168.489 535.78 168.458 535.692 168.411 535.612C168.363 535.533 168.299 535.465 168.224 535.412C168.148 535.358 168.063 535.322 167.972 535.303C161.748 533.783 155.225 534.004 149.118 535.942C149.03 535.967 148.949 536.011 148.88 536.07C148.811 536.129 148.756 536.202 148.717 536.285C148.679 536.367 148.658 536.457 148.657 536.548C148.656 536.639 148.675 536.729 148.711 536.812C148.786 536.946 148.9 537.053 149.037 537.12C149.174 537.188 149.329 537.212 149.48 537.189Z" fill="#F0F0F0"/>
<path d="M167.479 530.007C167.619 530.007 167.756 529.968 167.874 529.893C167.992 529.819 168.086 529.712 168.147 529.587C168.181 529.502 168.197 529.411 168.194 529.32C168.191 529.229 168.169 529.14 168.129 529.058C168.089 528.976 168.033 528.903 167.964 528.844C167.894 528.785 167.813 528.742 167.726 528.716C158.719 525.437 149.35 529.035 148.958 529.195C148.87 529.221 148.789 529.267 148.72 529.328C148.652 529.388 148.597 529.463 148.559 529.547C148.522 529.631 148.504 529.723 148.505 529.814C148.506 529.906 148.527 529.997 148.567 530.08C148.669 530.247 148.827 530.372 149.013 530.433C149.199 530.494 149.401 530.487 149.582 530.414C149.669 530.414 158.763 526.888 167.16 529.949C167.261 529.991 167.37 530.01 167.479 530.007Z" fill="#F0F0F0"/>
<path d="M167.349 523.854C167.488 523.852 167.625 523.813 167.744 523.742C167.864 523.671 167.963 523.569 168.031 523.448C168.068 523.364 168.086 523.273 168.085 523.181C168.084 523.089 168.064 522.998 168.026 522.915C167.987 522.831 167.932 522.757 167.863 522.696C167.794 522.635 167.713 522.59 167.625 522.563C161.411 520.304 154.578 520.449 148.465 522.969C148.381 523.004 148.305 523.057 148.243 523.124C148.181 523.191 148.134 523.27 148.105 523.357C148.076 523.444 148.066 523.535 148.076 523.626C148.085 523.717 148.114 523.805 148.161 523.883C148.272 524.043 148.437 524.159 148.625 524.209C148.814 524.26 149.014 524.242 149.191 524.159C154.895 521.873 161.237 521.744 167.03 523.796C167.132 523.837 167.24 523.856 167.349 523.854Z" fill="#F0F0F0"/>
<path d="M167.19 516.876C167.326 516.879 167.461 516.844 167.578 516.774C167.696 516.705 167.792 516.605 167.857 516.484C167.896 516.401 167.917 516.311 167.918 516.219C167.92 516.127 167.901 516.036 167.864 515.952C167.827 515.868 167.772 515.793 167.703 515.732C167.634 515.671 167.553 515.626 167.465 515.599C158.197 511.914 148.61 516.005 148.175 516.18C148.089 516.211 148.011 516.26 147.945 516.323C147.88 516.387 147.829 516.465 147.796 516.55C147.763 516.635 147.749 516.727 147.754 516.818C147.759 516.909 147.784 516.998 147.827 517.079C147.932 517.247 148.095 517.37 148.285 517.426C148.474 517.482 148.678 517.467 148.857 517.384C148.944 517.384 158.241 513.408 166.856 516.818C166.96 516.866 167.075 516.886 167.19 516.876Z" fill="#ECECEC"/>
<path d="M156.225 285.385C156.225 322.24 161.316 396.037 161.316 396.037C161.78 400.564 167.784 420.602 168.205 436.969C168.886 463.232 167.842 481.457 167.842 481.457C167.842 481.457 153.339 486.84 142.925 482.69C142.925 482.69 129.582 429.845 126.086 412.738C121.924 392.352 112.047 352.377 112.047 352.377L105.085 406.223C105.085 406.223 107.26 425.391 105.085 441.235C103.635 452.031 99.559 480.296 99.559 480.296C99.559 480.296 85.6645 484.765 74.2936 481.137C74.2936 481.137 69.7395 410.852 69.0578 400.912C68.3761 390.973 68.4631 339.478 70.9143 276.723L156.225 285.385Z" fill="#4B717A"/>
<path d="M112.046 352.378L106.245 317.554C98.9517 317.104 92.0458 314.117 86.7227 309.109C86.7227 309.109 87.6219 317.148 103.17 322.299L108.507 351.246L105.084 406.195L112.046 352.378Z" fill="#3A565E"/>
<path d="M77.3534 172.542C67.8825 174.82 64.4451 176.387 55.6849 180.653C33.7554 191.289 12.2899 201.736 12.2899 201.736C12.2899 201.736 2.51448 228.869 9.67929 230.088C12.8846 230.625 23.4143 229.435 40.2385 224.458C57.4399 219.351 74.2061 212.85 74.2351 212.43C74.8153 204.217 77.3534 172.542 77.3534 172.542Z" fill="#FC566A"/>
<path opacity="0.2" d="M77.3534 172.542C67.8825 174.82 64.4451 176.387 55.6849 180.653C33.7554 191.289 12.2899 201.736 12.2899 201.736C12.2899 201.736 2.51448 228.869 9.67929 230.088C12.8846 230.625 23.4143 229.435 40.2385 224.458C57.4399 219.351 74.2061 212.85 74.2351 212.43C74.8153 204.217 77.3534 172.542 77.3534 172.542Z" fill="#0B2827"/>
<path opacity="0.2" d="M24.4873 224.487L39.3101 188.677L53.5673 181.756C50.1299 189.374 45.0826 200.445 42.1963 205.915C37.5697 214.664 33.3636 220.744 24.4873 224.487Z" fill="#0B2827"/>
<path d="M57.4838 157.713C58.6006 155.174 60.225 152.054 60.8486 150.328C62.0089 147.092 61.1532 143.29 60.5006 139.91C60.1815 138.285 60.0654 137.008 59.8044 135.426C59.4491 133.698 59.279 131.937 59.2968 130.174C59.3968 127.78 60.0842 125.448 61.2983 123.383C61.6318 122.774 65.6494 122.919 66.7226 122.483C68.7676 121.714 69.0867 120.147 67.4188 119.799C64.8603 119.293 62.2438 119.147 59.6448 119.364C57.8899 119.77 54.0174 126.793 54.0174 126.793C54.0174 126.793 55.7434 121.076 56.454 119.538C57.1647 118 60.8922 117.564 62.9082 116.868C66.128 115.765 66.9837 112.892 65.7074 112.805C62.2763 112.771 58.8578 113.225 55.5548 114.155C52.6541 115.025 51.7403 115.606 50.3045 118.508C49.3446 120.641 48.5305 122.837 47.8679 125.081C47.8679 125.081 48.216 115.881 48.535 114.082C48.535 114.082 51.2617 113.037 52.451 112.501C54.1625 111.732 56.222 110.411 56.3235 108.394C56.3235 108.394 56.9036 106.348 53.6403 107.262C50.3219 108.08 47.0572 109.103 43.8649 110.324C42.8931 110.963 42.1824 113.226 41.7328 117.463C41.1244 123.673 40.9402 129.917 41.1817 136.152C41.5319 140.882 41.303 145.638 40.5 150.313C38.7596 160.963 15.8438 178.97 5.57518 197.282C1.6737 204.246 0.179821 209.804 1.00653 217.697C2.0943 228.1 7.86676 231.8 13.3782 229.189C23.2309 224.149 31.1366 215.985 35.8588 205.973C44.5465 186.385 52.5526 167.217 57.4838 157.713Z" fill="#FFBFA9"/>
<path d="M48.3317 180.871L51.8851 172.542C47.377 172.223 42.9594 171.119 38.8318 169.277C33.2479 166.448 31.725 163.749 31.725 163.749L26.6777 169.814C26.6777 169.814 34.1761 182.51 48.3317 180.871Z" fill="#FAFAFA"/>
<path d="M50.5942 178.288C43.8065 177.94 29.0418 173.645 27.9395 167.348C15.4373 181.611 9.27326 189.446 4.2695 197.456C-0.734272 205.465 -1.19839 218.683 2.13746 225.358C5.4733 232.033 13.2328 231.989 22.9357 225.634C36.9318 216.463 50.5942 178.288 50.5942 178.288Z" fill="#FC566A"/>
<path opacity="0.2" d="M50.5942 178.288C43.8065 177.94 29.0418 173.645 27.9395 167.348C15.4373 181.611 9.27326 189.446 4.2695 197.456C-0.734272 205.465 -1.19839 218.683 2.13746 225.358C5.4733 232.033 13.2328 231.989 22.9357 225.634C36.9318 216.463 50.5942 178.288 50.5942 178.288Z" fill="#0B2827"/>
<path d="M73.2052 198.573C75.0037 185.514 81.4578 173.645 92.9882 170.641L123.286 167.145C129.683 168.813 145.129 181.422 145.129 181.422L154.658 229.595C154.658 229.595 156.253 262.968 155.76 284.732C137.123 296.558 96.5851 300.388 71.1167 281.047C70.406 263.069 71.4357 211.472 73.2052 198.573Z" fill="#F0F0F0"/>
<path d="M70.8271 131.247C66.1424 124.471 67.3753 114.01 70.3195 108.641C74.6706 100.864 82.7201 96.2786 95.962 94.5229C106.115 93.1735 116.644 95.3935 120.517 105.246C128.987 106.058 132.816 117.768 130.785 128.461C128.436 140.925 122.707 147.832 122.083 155.537L70.8271 131.247Z" fill="#1A2E35"/>
<path d="M70.5667 118.682C74.5697 114.111 88.7543 109.816 100.792 111.137C101.43 113.85 102.243 116.825 104.955 118.885C106.244 119.899 107.724 120.644 109.306 121.076C109.926 124.752 111.224 128.28 113.135 131.48C113.51 132.217 114.063 132.849 114.745 133.318C115.426 133.786 116.214 134.077 117.036 134.164C118.487 134.338 119.749 130.798 121.025 128.81C122.301 126.822 127.131 123.47 130.829 128.505C132.426 130.696 133.217 133.372 133.069 136.079C132.921 138.786 131.843 141.359 130.017 143.363C125.405 147.861 121.475 144.814 121.475 144.814L124.375 170.613C115.484 185.007 86.1581 186.109 94.4977 172.934L93.5115 166.84C91.8819 167.252 90.2154 167.499 88.5367 167.58C83.1269 167.783 79.0223 164.272 76.3391 158.874C73.8475 153.413 72.2932 147.571 71.7415 141.593C70.8858 135.151 68.7972 124.007 70.5667 118.682Z" fill="#FFBFA9"/>
<path d="M97.8472 149.341C98.2898 149.456 98.6993 149.673 99.0421 149.975C99.3849 150.278 99.6513 150.657 99.8197 151.083C99.8474 151.295 99.7962 151.509 99.6758 151.686C99.5554 151.863 99.3743 151.989 99.167 152.04C98.3983 152.33 97.5571 152.432 96.7739 152.664C95.8429 152.88 94.9865 153.341 94.2937 153.999C93.8881 154.406 93.4463 154.775 92.9739 155.102C92.8642 155.204 92.735 155.282 92.5941 155.332C92.4532 155.382 92.3036 155.403 92.1544 155.394C92.0051 155.384 91.8594 155.344 91.726 155.277C91.5926 155.209 91.4743 155.115 91.3785 155C91.1161 154.563 90.9851 154.059 91.0014 153.549C90.9143 150.372 95.0044 148.282 97.8472 149.341Z" fill="#C76668"/>
<path d="M94.4395 153.854C94.4394 152.947 94.7505 152.067 95.3207 151.362C95.8908 150.657 96.6856 150.169 97.5722 149.98C98.0505 149.879 98.5444 149.879 99.0226 149.98C99.3778 150.243 99.6376 150.615 99.7623 151.039C99.79 151.251 99.7388 151.466 99.6184 151.642C99.4981 151.819 99.317 151.945 99.1096 151.997C98.341 152.287 97.4997 152.388 96.7165 152.621C95.8678 152.838 95.0858 153.262 94.4395 153.854Z" fill="#FFAC92"/>
<path d="M93.4531 166.912C99.2546 165.462 111.119 160.238 113.599 156.378C116.079 152.519 116.035 145.583 116.035 145.583C116.035 145.583 117.21 154.057 115.528 158.236C113.845 162.414 108.087 165.215 104.577 166.854C101.118 168.257 97.5718 169.435 93.9608 170.38L93.4531 166.912Z" fill="#FFAC92"/>
<path d="M92.9733 135.469C92.9733 136.92 94.0756 135.469 95.4099 135.571C96.7443 135.672 97.803 137.022 97.861 135.672C97.8966 135.339 97.8634 135.002 97.7635 134.681C97.6636 134.361 97.4991 134.065 97.2802 133.811C97.0613 133.557 96.7927 133.351 96.4908 133.205C96.189 133.059 95.8605 132.976 95.5255 132.962C95.1905 132.948 94.8563 133.003 94.5434 133.124C94.2305 133.244 93.9457 133.427 93.7065 133.662C93.4672 133.897 93.2788 134.179 93.1527 134.49C93.0266 134.801 92.9655 135.134 92.9733 135.469Z" fill="#1A2E35"/>
<path d="M76.3662 139.154C76.8739 140.46 77.3815 138.748 78.6288 138.269C79.8762 137.791 81.4136 138.676 80.906 137.37C80.7888 137.072 80.6141 136.799 80.3918 136.569C80.1695 136.338 79.904 136.153 79.6104 136.025C79.3168 135.897 79.0009 135.829 78.6806 135.823C78.3604 135.817 78.0422 135.874 77.7441 135.991C77.446 136.109 77.1739 136.283 76.9434 136.506C76.7128 136.728 76.5283 136.994 76.4003 137.287C76.2724 137.581 76.2035 137.897 76.1977 138.218C76.1918 138.538 76.2491 138.856 76.3662 139.154Z" fill="#1A2E35"/>
<path d="M99.5146 128.998L93.8003 126.851C93.3071 128.302 94.5545 129.666 95.9468 130.188C96.2578 130.351 96.5985 130.449 96.9485 130.478C97.2985 130.506 97.6505 130.463 97.9836 130.352C98.3167 130.241 98.624 130.064 98.887 129.831C99.1501 129.598 99.3636 129.315 99.5146 128.998Z" fill="#1A2E35"/>
<path d="M72.5234 133.539L77.3241 129.781C77.6649 130.431 77.7466 131.187 77.5528 131.895C77.359 132.603 76.9042 133.211 76.2799 133.597C76.0346 133.85 75.7404 134.049 75.4152 134.184C75.0901 134.318 74.7409 134.385 74.3891 134.379C74.0374 134.374 73.6904 134.296 73.3696 134.152C73.0487 134.008 72.7608 133.799 72.5234 133.539Z" fill="#1A2E35"/>
<path d="M87.7674 130.13L89.4208 147.716L79.6309 146.744L87.7674 130.13Z" fill="#FFAC92"/>
<path d="M65.3586 221.136C64.4884 197.078 65.1121 185.282 70.9135 177.272C74.4379 172.412 78.2524 172.136 91.4507 168.77L90.2034 171.672C88.3308 173.256 86.7629 175.169 85.5767 177.316C83.0386 181.408 80.9791 184.571 79.3837 195.555C77.9333 205.61 79.3837 240.535 79.8333 259.761C80.2829 278.986 79.9203 315.232 79.9203 315.232C74.5069 313.193 69.6867 309.837 65.8953 305.467C65.8953 305.467 67.0411 267.727 65.3586 221.136Z" fill="#FC566A"/>
<path d="M79.6603 254.639C77.0496 242.349 69.8993 232.628 70.494 228.391C71.0886 224.154 76.687 209.238 76.8031 206.844C76.9191 204.45 70.494 212.648 70.494 210.094C70.494 205.19 71.2772 199.255 77.2237 186.153C81.9809 175.662 86.9556 170.511 93.5403 167.29L94.396 172.586C94.396 172.586 88.9861 175.88 84.0839 201.2C81.2267 216.246 79.5878 227.404 79.6603 254.639Z" fill="#4B717A"/>
<path d="M120.807 193.393C120.807 184.15 125.158 172.179 125.434 165.693L147.102 169.35C150.573 177.8 153.183 186.58 154.89 195.555C157.574 209.382 159.575 218.422 159.923 249.807C160.17 271.76 159.735 305.844 159.735 305.844C149.858 322.327 119.951 323.502 119.951 323.502C119.951 323.502 121.547 301.375 121.111 256.902C120.865 231.974 120.807 202.635 120.807 193.393Z" fill="#FC566A"/>
<path d="M122.794 157.061L123.635 164.577C123.127 170.468 119.719 185.195 119.052 189.243C117.761 197.325 118.022 211.56 121.082 254.538C127.725 240.129 131.337 229.871 131.627 226.331C131.917 222.79 124.737 210.515 123.983 207.99C123.229 205.465 130.089 210.196 132.018 207.86C133.947 205.523 135.325 167.043 135.325 167.043C135.325 167.043 131.366 163.314 129.35 161.152C126.956 158.686 125.825 157.061 122.794 157.061Z" fill="#4B717A"/>
<path d="M147.102 169.351C155.702 170.555 160.242 174.85 175.616 182.642C180.91 185.311 196.719 194.859 196.719 194.859L207.858 215.419L203.971 221.049C195.66 223.037 190.381 220.802 174.311 218.002C167.77 216.856 159.343 215.637 158.502 218.408C148.436 222.834 136.572 184.209 147.102 169.351Z" fill="#FC566A"/>
<path opacity="0.2" d="M147.102 169.351C155.702 170.555 160.242 174.85 175.616 182.642C180.91 185.311 196.719 194.859 196.719 194.859L207.858 215.419L203.971 221.049C195.66 223.037 190.381 220.802 174.311 218.002C167.77 216.856 159.343 215.637 158.502 218.408C148.436 222.834 136.572 184.209 147.102 169.351Z" fill="#0B2827"/>
<path opacity="0.2" d="M52.0876 186.152C49.2884 196.309 38.0771 223.051 11.5645 221.658L52.0876 186.152Z" fill="#0B2827"/>
<path d="M160.764 150.952C160.068 149.124 161.432 143.697 161.069 140.621C160.706 137.545 157.994 132.423 158.023 128.636C158.052 124.849 156.95 123.833 155.964 124.53C154.988 125.466 154.216 126.594 153.695 127.842C153.173 129.09 152.914 130.432 152.933 131.784C153.266 134.788 160.764 150.952 160.764 150.952Z" fill="#FFAC92"/>
<path d="M146.956 164.373C145.216 162.211 142.823 159.614 141.778 158.105C139.806 155.203 139.646 151.372 139.4 147.948C139.269 146.294 139.052 145.046 138.907 143.421C138.789 141.659 138.493 139.913 138.022 138.212C137.292 135.944 136.023 133.888 134.323 132.219C133.845 131.711 130.059 132.872 128.827 132.756C126.651 132.553 125.926 131.116 127.463 130.333C129.811 129.169 132.311 128.344 134.889 127.881C136.688 127.881 142.271 133.598 142.271 133.598C142.271 133.598 139.11 128.519 138.022 127.257C136.934 125.994 133.221 126.502 131.089 126.357C127.681 126.125 126.1 123.557 127.318 123.15C130.621 122.221 134.04 121.771 137.471 121.816C140.502 121.816 141.532 122.164 143.707 124.717C145.187 126.483 146.549 128.344 147.783 130.289C147.783 130.289 145.056 121.482 144.273 119.828C144.273 119.828 141.372 119.523 140.067 119.305C138.21 119.015 135.875 118.275 135.252 116.403C135.252 116.403 134.164 114.561 137.543 114.604C140.961 114.521 144.381 114.652 147.783 114.996C148.885 115.373 150.176 117.39 151.713 121.351C153.912 127.212 155.72 133.213 157.123 139.314C158.019 143.978 159.48 148.514 161.474 152.823C165.941 162.69 185.565 173.137 200.257 188.111C205.856 193.915 208.742 198.848 210.018 206.713C211.686 217.058 207.117 222.151 201.04 221.063C190.18 218.761 180.39 212.918 173.208 204.449C159.676 187.69 154.208 172.281 146.956 164.373Z" fill="#FFBFA9"/>
<path d="M138.022 138.197C137.686 136.829 137.117 135.528 136.34 134.352C135.942 133.763 135.506 133.201 135.034 132.669L134.672 132.277L134.44 132.089C134.35 132.01 134.239 131.96 134.121 131.944C133.75 131.893 133.374 131.893 133.004 131.944C131.554 132.132 130.248 132.481 128.899 132.524C128.222 132.543 127.558 132.334 127.014 131.929C126.877 131.793 126.776 131.625 126.72 131.44C126.664 131.255 126.656 131.059 126.695 130.87C127.576 130.292 128.514 129.806 129.494 129.419C128.403 129.666 127.372 130.13 126.463 130.783C126.379 131.023 126.352 131.279 126.385 131.531C126.417 131.783 126.509 132.024 126.651 132.234C127.174 132.771 127.435 133.032 128.856 133.017C130.271 132.886 131.676 132.663 133.062 132.35C133.389 132.307 133.721 132.307 134.048 132.35C134.101 132.343 134.155 132.343 134.208 132.35L134.382 132.539L134.744 132.916C135.209 133.424 135.644 133.975 136.064 134.526C136.884 135.653 137.543 136.889 138.022 138.197Z" fill="#FFAC92"/>
<path d="M176.675 167.392L169.989 161.863C168.087 165.23 165.746 168.329 163.027 171.077C157.733 176.808 154.571 177.041 154.571 177.041L159.735 185.427C168.451 181.742 173.76 176.562 176.675 167.392Z" fill="#FAFAFA"/>
<path d="M175.718 163.764C171.367 170.83 163.781 180.987 157.022 182.626C160.431 186.573 167.944 202.723 178.778 210.935C189.612 219.148 195.936 221.092 201.563 221.803C207.191 222.514 212.267 219.438 211.991 211.748C211.716 204.057 211.585 197.049 205.131 189.635C198.677 182.22 175.718 163.764 175.718 163.764Z" fill="#FC566A"/>
<path opacity="0.2" d="M175.718 163.764C171.367 170.83 163.781 180.987 157.022 182.626C160.431 186.573 167.944 202.723 178.778 210.935C189.612 219.148 195.936 221.092 201.563 221.803C207.191 222.514 212.267 219.438 211.991 211.748C211.716 204.057 211.585 197.049 205.131 189.635C198.677 182.22 175.718 163.764 175.718 163.764Z" fill="#0B2827"/>
<path d="M81.8788 21.8144H88.0719C88.9759 16.2384 91.6724 11.1092 95.7526 7.20442C99.8329 3.29962 105.074 0.832093 110.683 0.175876C116.291 -0.480341 121.96 0.710531 126.831 3.56798C131.702 6.42542 135.509 10.7936 137.674 16.0105H143.868C148.172 16.0105 152.3 17.7211 155.344 20.766C158.387 23.811 160.097 27.9408 160.097 32.247V35.8309H163.462C165.77 35.8309 167.983 36.7481 169.615 38.3808C171.247 40.0135 172.164 42.2279 172.164 44.5368C172.164 46.8458 171.247 49.0602 169.615 50.6928C167.983 52.3255 165.77 53.2427 163.462 53.2427H81.8788C77.7245 53.2427 73.7403 51.5917 70.8027 48.6529C67.8651 45.7141 66.2148 41.7282 66.2148 37.5721C66.2148 33.416 67.8651 29.4301 70.8027 26.4913C73.7403 23.5525 77.7245 21.9015 81.8788 21.9015V21.8144Z" fill="#3A565E"/>
<path d="M23.8498 59.293H27.6497C28.2106 55.8742 29.8681 52.7309 32.372 50.3375C34.8759 47.9442 38.0902 46.431 41.5295 46.0263C44.9688 45.6216 48.4464 46.3474 51.437 48.0942C54.4276 49.841 56.769 52.5138 58.1074 55.7091H61.9219C64.5658 55.7129 67.1002 56.7664 68.9684 58.6381C70.8366 60.5098 71.8859 63.0468 71.8859 65.6918V67.8973H73.9744C75.3861 67.8973 76.74 68.4584 77.7382 69.457C78.7364 70.4557 79.2972 71.8101 79.2972 73.2225C79.2972 74.6348 78.7364 75.9892 77.7382 76.9879C76.74 77.9865 75.3861 78.5476 73.9744 78.5476H23.8498C22.5546 78.5979 21.2626 78.3861 20.0512 77.925C18.8398 77.4638 17.7339 76.7628 16.7998 75.8638C15.8657 74.9649 15.1226 73.8866 14.615 72.6935C14.1073 71.5003 13.8457 70.217 13.8457 68.9203C13.8457 67.6236 14.1073 66.3402 14.615 65.1471C15.1226 63.954 15.8657 62.8757 16.7998 61.9767C17.7339 61.0778 18.8398 60.3768 20.0512 59.9156C21.2626 59.4545 22.5546 59.2427 23.8498 59.293Z" fill="#4B717A"/>
<path d="M109.218 25.2822H121.358L111.539 40.5756H118.646L100.763 62.6741L107.318 46.1619H100.081L109.218 25.2822Z" fill="#FC566A"/>
<path opacity="0.4" d="M109.218 25.2822H121.358L111.539 40.5756H118.646L100.763 62.6741L107.318 46.1619H100.081L109.218 25.2822Z" fill="white"/>
<path d="M126.927 45.9883H136.789L128.812 58.3942H134.585L120.067 76.3574L125.375 62.9503H119.516L126.927 45.9883Z" fill="#FC566A"/>
<path opacity="0.4" d="M126.927 45.9883H136.789L128.812 58.3942H134.585L120.067 76.3574L125.375 62.9503H119.516L126.927 45.9883Z" fill="white"/>
<path d="M39.1076 71.0898H48.9701L40.9931 83.5103H46.7655L32.2474 101.459L37.5703 88.0519H31.6963L39.1076 71.0898Z" fill="#FC566A"/>
<path opacity="0.4" d="M39.1076 71.0898H48.9701L40.9931 83.5103H46.7655L32.2474 101.459L37.5703 88.0519H31.6963L39.1076 71.0898Z" fill="white"/>
</svg>
