<svg width="270" height="478" viewBox="0 0 270 478" fill="none" xmlns="http://www.w3.org/2000/svg">
<g clip-path="url(#clip0)">
<path d="M13.6975 321.593C16.7731 326.963 21.3723 334.38 25.6867 342.378C32.1655 354.369 38.0034 367.695 37.0779 377.555V378.55L37.9038 393.694L37.9892 395.74L41.5774 393.68L50.3914 388.594C53.6281 372.293 53.7006 355.524 50.605 339.196C47.1449 319.405 33.2761 297.683 21.5716 296.503C10.6503 295.381 5.99417 308.182 13.6975 321.593Z" fill="#E1E1E1"/>
<path d="M45.5221 388.026C45.38 387.97 45.2607 387.868 45.1833 387.737C45.1059 387.606 45.0747 387.452 45.0949 387.301C49.6799 350.675 34.558 316.905 19.1941 304.673C19.1222 304.616 19.0621 304.545 19.0174 304.465C18.9727 304.385 18.9443 304.297 18.9337 304.206C18.9231 304.115 18.9306 304.023 18.9558 303.935C18.9809 303.846 19.0232 303.764 19.0802 303.692C19.1373 303.62 19.2079 303.56 19.2882 303.516C19.3684 303.471 19.4566 303.443 19.5479 303.432C19.6391 303.422 19.7315 303.429 19.8199 303.454C19.9082 303.479 19.9907 303.522 20.0627 303.579C35.7256 316.01 51.1322 350.334 46.4903 387.472C46.4798 387.564 46.451 387.652 46.4058 387.733C46.3606 387.813 46.2998 387.884 46.2269 387.941C46.154 387.998 46.0705 388.04 45.9813 388.064C45.8921 388.088 45.7989 388.095 45.7072 388.083L45.5221 388.026Z" fill="white"/>
<path d="M0.199398 344.779C1.42395 351.883 14.3387 360.222 22.8821 371.773C30.5854 382.158 33.9458 392.686 33.6611 398.283L37.9328 395.811L41.521 393.751C43.486 367.766 33.9031 352.636 25.6018 342.449C23.1097 339.559 20.0073 337.254 16.5173 335.701C5.15456 331.112 -1.23874 336.269 0.199398 344.779Z" fill="#F0F0F0"/>
<path d="M37.7187 393.638C37.5935 393.583 37.4867 393.494 37.411 393.381C37.3352 393.267 37.2938 393.135 37.2915 392.998C36.8501 363.248 19.7633 347.024 10.7785 342.605C10.6959 342.565 10.6223 342.508 10.5618 342.439C10.5014 342.369 10.4552 342.289 10.4261 342.202C10.397 342.115 10.3855 342.023 10.3922 341.931C10.3989 341.839 10.4237 341.75 10.4652 341.668C10.5045 341.584 10.5605 341.509 10.6297 341.448C10.699 341.386 10.78 341.34 10.8679 341.31C10.9558 341.281 11.0487 341.27 11.1411 341.278C11.2334 341.285 11.3232 341.312 11.405 341.355C21.3723 346.243 38.2455 362.666 38.7012 392.984C38.7012 393.17 38.6282 393.349 38.4977 393.481C38.3672 393.614 38.1898 393.691 38.0035 393.694C37.9054 393.697 37.808 393.678 37.7187 393.638Z" fill="white"/>
<path d="M112.83 407.589C112.573 401.309 108.956 337.562 108.956 337.562L140.795 360.449C135.826 396.621 133.675 407.674 133.376 413.712C133.503 414.218 133.541 414.742 133.49 415.261C133.177 422.364 124.505 425.973 117.671 430.519C111.842 434.531 105.683 438.043 99.2597 441.018C94.3473 443.149 84.5366 443.021 83.4259 440.038C91.7558 434.454 101.367 428.388 108.059 421.924C111.263 418.841 113.143 415.118 112.83 407.589Z" fill="#FFBFA9"/>
<path d="M73.7436 447.355C73.3591 447.355 72.6045 451.617 74.6407 453.564C76.9901 455.78 83.9814 459.531 93.4504 458.621C102.919 457.712 108.131 454.956 111.961 451.887C115.791 448.818 121.302 444.485 125.602 443.69C129.589 442.937 133.96 441.274 135.285 440.081C136.609 438.888 136.623 433.347 136.623 433.347L73.7436 447.355Z" fill="#1A2E35"/>
<path d="M133.504 412.008C133.831 412.032 134.137 412.176 134.363 412.413C134.589 412.649 134.719 412.96 134.729 413.286C134.957 414.821 135.242 419.282 135.768 421.811C136.495 425.32 137.078 432.509 136.452 435.322C135.825 438.135 129.332 439.868 125.061 441.303C120.112 443.291 115.498 446.022 111.377 449.401C106.806 452.939 97.3515 456.334 91.2145 456.206C81.831 456.007 75.8506 453.209 74.1277 449.728C71.9634 445.466 72.7892 442.425 83.7675 437.737C87.9608 435.723 92.0394 433.48 95.9846 431.017C102.296 427.167 107.267 421.473 110.224 414.707C110.506 413.803 111.082 413.018 111.861 412.477C112.529 412.219 113.262 412.179 113.954 412.363C115.748 412.69 120.917 413.528 122.498 414.38C124.078 415.233 125.943 416.014 125.844 417.89C125.775 418.544 125.612 419.185 125.36 419.793C125.217 420.163 125.089 420.674 125.36 420.916C125.63 421.157 126.086 420.916 126.385 420.66C127.488 419.598 128.503 418.449 129.418 417.222C129.943 416.591 130.541 416.024 131.198 415.531C131.846 415.184 132.474 414.8 133.077 414.38C133.263 413.598 133.406 412.806 133.504 412.008Z" fill="#4B717A"/>
<path d="M83.4694 437.666C96.9965 439.087 102.678 447.995 100.955 454.416C97.828 455.493 94.5511 456.073 91.2439 456.135C81.8604 455.936 75.4956 453.123 73.7584 449.643C71.7365 445.565 73.7157 441.033 83.4694 437.666Z" fill="#FAFAFA"/>
<path d="M101.908 439.626C102.063 439.629 102.213 439.579 102.335 439.484C102.405 439.431 102.465 439.364 102.509 439.288C102.554 439.213 102.583 439.129 102.594 439.042C102.606 438.954 102.601 438.866 102.578 438.781C102.556 438.696 102.517 438.616 102.463 438.546C100.959 436.835 99.1004 435.469 97.0156 434.545C94.9309 433.62 92.6699 433.158 90.3886 433.19C90.2112 433.208 90.0473 433.293 89.9308 433.428C89.8143 433.563 89.7539 433.737 89.7621 433.915C89.7675 434.002 89.7903 434.088 89.829 434.167C89.8678 434.246 89.9218 434.317 89.988 434.375C90.0541 434.433 90.1311 434.477 90.2145 434.506C90.2979 434.534 90.3861 434.545 90.4741 434.54C92.534 434.529 94.573 434.952 96.4576 435.782C98.3421 436.612 100.03 437.83 101.41 439.356C101.468 439.434 101.543 439.498 101.629 439.545C101.715 439.592 101.81 439.619 101.908 439.626Z" fill="#F0F0F0"/>
<path d="M107.39 436.33C107.544 436.331 107.695 436.281 107.817 436.188C107.956 436.078 108.047 435.92 108.071 435.745C108.095 435.57 108.05 435.393 107.945 435.25C106.437 433.54 104.576 432.175 102.489 431.251C100.402 430.326 98.1396 429.863 95.8565 429.894C95.7685 429.901 95.6828 429.926 95.6043 429.966C95.5258 430.006 95.4561 430.062 95.3992 430.129C95.3423 430.196 95.2993 430.274 95.2727 430.358C95.2461 430.442 95.2364 430.531 95.2442 430.619C95.2478 430.706 95.2689 430.791 95.3061 430.87C95.3434 430.949 95.396 431.02 95.4611 431.078C95.5261 431.136 95.6021 431.181 95.6847 431.209C95.7673 431.238 95.8548 431.249 95.9419 431.244C98.0023 431.23 100.042 431.652 101.927 432.482C103.812 433.312 105.499 434.532 106.877 436.06C106.938 436.14 107.015 436.205 107.104 436.252C107.192 436.299 107.29 436.325 107.39 436.33Z" fill="#F0F0F0"/>
<path d="M112.801 432.111C112.951 432.112 113.097 432.062 113.214 431.969C113.355 431.861 113.449 431.704 113.476 431.529C113.502 431.354 113.46 431.175 113.357 431.031C111.847 429.323 109.985 427.96 107.899 427.036C105.812 426.111 103.55 425.647 101.268 425.675C101.18 425.682 101.094 425.707 101.016 425.747C100.937 425.787 100.867 425.843 100.811 425.91C100.754 425.977 100.711 426.055 100.684 426.139C100.657 426.223 100.648 426.312 100.656 426.4C100.659 426.487 100.68 426.572 100.717 426.651C100.755 426.73 100.807 426.801 100.872 426.859C100.937 426.917 101.013 426.962 101.096 426.99C101.179 427.019 101.266 427.03 101.353 427.025C103.414 427.011 105.454 427.433 107.338 428.263C109.223 429.093 110.911 430.313 112.289 431.841C112.349 431.921 112.426 431.986 112.515 432.033C112.604 432.079 112.701 432.106 112.801 432.111Z" fill="#F0F0F0"/>
<path d="M118.141 427.877C118.291 427.879 118.437 427.829 118.554 427.735C118.695 427.628 118.789 427.47 118.816 427.295C118.842 427.12 118.799 426.942 118.697 426.798C116.233 423.374 110.438 420.973 105.483 421.342C105.307 421.36 105.144 421.446 105.03 421.581C104.916 421.716 104.859 421.89 104.871 422.067C104.876 422.154 104.899 422.239 104.938 422.317C104.977 422.396 105.031 422.465 105.097 422.522C105.164 422.579 105.241 422.622 105.324 422.649C105.407 422.676 105.495 422.685 105.582 422.678C110.039 422.351 115.436 424.567 117.629 427.593C117.688 427.675 117.765 427.743 117.854 427.792C117.942 427.841 118.04 427.87 118.141 427.877Z" fill="#F0F0F0"/>
<path d="M170.497 357.211L204.045 351.613C204.486 371.503 203.062 397.914 202.407 416.199C202.279 419.708 203.831 443.406 202.635 450.666C200.898 461.562 186.232 460.611 185.149 454.09C184.067 447.568 183.569 420.134 183.384 417.279C182.957 405.345 176.549 385.171 172.206 363.86C171.993 362.823 170.697 358.22 170.497 357.211Z" fill="#FFBFA9"/>
<path d="M179.867 458.764C179.867 465.143 180.692 469.405 183.013 473.283C185.334 477.162 190.133 478.597 195.031 477.787C199.929 476.977 206.422 474.42 208.216 469.035C210.011 463.651 209.954 459.872 209.242 453.919L179.867 458.764Z" fill="#1A2E35"/>
<path d="M202.478 414.182C204.486 414.437 204.415 422.706 205.013 431.344C205.639 440.55 208.487 444.514 209.099 452.086C209.811 460.724 209.099 464.518 205.283 469.504C201.467 474.491 189.108 478.867 183.654 471.11C179.198 464.788 179.383 458.068 180.465 449.543C181.509 442.335 182.142 435.072 182.359 427.792C182.359 421.356 181.405 415.332 183.199 414.722C183.27 415.673 183.327 416.881 183.412 417.804C183.498 418.728 183.412 422.067 184.566 422.067C184.706 421.269 184.768 420.461 184.751 419.651C184.717 419.282 184.76 418.909 184.878 418.557C184.995 418.205 185.185 417.881 185.434 417.606C186.419 417.054 187.512 416.719 188.638 416.625C190.646 416.398 192.653 416.199 194.675 416.156C195.686 416.156 196.697 416.156 197.708 416.227C198.571 416.261 199.425 416.419 200.243 416.696C200.47 416.768 200.679 416.888 200.856 417.047C201.033 417.206 201.173 417.402 201.268 417.62C201.339 417.947 201.339 418.287 201.268 418.614C201.223 419.205 201.271 419.8 201.41 420.376C201.41 420.632 201.638 420.958 201.937 420.916C202.042 420.882 202.134 420.816 202.198 420.726C202.262 420.637 202.295 420.529 202.293 420.419C202.364 419.381 202.293 418.614 202.293 417.421C202.293 416.853 202.293 416.327 202.379 415.773C202.464 415.219 202.478 414.736 202.478 414.182Z" fill="#4B717A"/>
<path d="M209.342 457.073C209.342 462.415 208.744 466.038 205.796 469.945C202.037 474.917 188.709 479.264 183.199 471.507C180.479 467.643 179.981 463.239 179.867 458.721C183.811 453.208 204.031 451.887 209.342 457.073Z" fill="#FAFAFA"/>
<path d="M185.648 449.742C185.733 449.755 185.819 449.755 185.904 449.742C191.575 447.986 197.614 447.785 203.39 449.159C203.571 449.215 203.767 449.201 203.939 449.12C204.11 449.038 204.245 448.895 204.315 448.719C204.338 448.632 204.344 448.541 204.331 448.452C204.319 448.363 204.288 448.278 204.242 448.201C204.195 448.124 204.133 448.057 204.06 448.004C203.987 447.952 203.905 447.914 203.817 447.895C197.706 446.406 191.302 446.622 185.306 448.52C185.22 448.545 185.141 448.587 185.073 448.645C185.005 448.703 184.951 448.775 184.913 448.856C184.875 448.936 184.855 449.024 184.854 449.113C184.853 449.202 184.871 449.291 184.907 449.372C184.978 449.502 185.087 449.606 185.22 449.672C185.352 449.738 185.501 449.763 185.648 449.742Z" fill="#F0F0F0"/>
<path d="M203.333 442.71C203.47 442.708 203.604 442.669 203.719 442.596C203.835 442.523 203.928 442.42 203.988 442.298C204.024 442.215 204.042 442.126 204.04 442.036C204.038 441.946 204.017 441.858 203.978 441.777C203.938 441.696 203.882 441.625 203.813 441.567C203.743 441.51 203.662 441.468 203.575 441.445C194.719 438.234 185.535 441.758 185.065 441.914C184.98 441.942 184.902 441.987 184.836 442.047C184.77 442.108 184.717 442.181 184.682 442.263C184.647 442.345 184.63 442.434 184.632 442.523C184.634 442.613 184.656 442.7 184.695 442.781C184.795 442.944 184.95 443.067 185.133 443.126C185.315 443.186 185.513 443.179 185.691 443.107C185.777 443.107 194.705 439.655 202.949 442.653C203.07 442.704 203.202 442.724 203.333 442.71Z" fill="#F0F0F0"/>
<path d="M203.205 436.657C203.34 436.657 203.473 436.62 203.588 436.55C203.703 436.48 203.797 436.379 203.86 436.26C203.896 436.178 203.915 436.09 203.915 436C203.915 435.911 203.896 435.823 203.86 435.741C203.824 435.66 203.771 435.586 203.705 435.526C203.638 435.466 203.56 435.421 203.475 435.393C197.375 433.181 190.667 433.323 184.666 435.791C184.583 435.825 184.508 435.877 184.447 435.942C184.386 436.008 184.34 436.085 184.312 436.17C184.283 436.255 184.274 436.345 184.283 436.434C184.293 436.523 184.321 436.609 184.367 436.686C184.476 436.843 184.638 436.956 184.823 437.005C185.008 437.055 185.204 437.037 185.378 436.956C190.974 434.718 197.195 434.592 202.877 436.601C202.982 436.639 203.093 436.658 203.205 436.657Z" fill="#F0F0F0"/>
<path d="M203.076 429.852C203.21 429.853 203.342 429.818 203.457 429.75C203.572 429.682 203.667 429.585 203.731 429.468C203.77 429.387 203.791 429.298 203.792 429.208C203.793 429.118 203.775 429.029 203.738 428.947C203.702 428.864 203.648 428.791 203.58 428.731C203.513 428.672 203.433 428.627 203.347 428.601C194.248 424.993 184.836 428.999 184.395 429.17C184.31 429.199 184.233 429.247 184.169 429.31C184.105 429.373 184.055 429.449 184.024 429.533C183.993 429.618 183.98 429.707 183.988 429.797C183.995 429.886 184.022 429.973 184.067 430.051C184.168 430.213 184.325 430.334 184.509 430.389C184.693 430.444 184.89 430.43 185.064 430.349C185.164 430.349 194.291 426.456 202.735 429.795C202.842 429.841 202.96 429.86 203.076 429.852Z" fill="#ECECEC"/>
<path d="M192.283 203.162C192.283 239.249 197.281 311.492 197.281 311.492C197.737 315.939 203.632 335.559 204.045 351.585C204.714 377.3 203.675 395.144 203.675 395.144C203.675 395.144 189.436 400.415 179.226 396.351C179.226 396.351 166.126 344.609 162.695 327.844C158.608 307.954 148.911 268.757 148.911 268.757L142.077 321.48C142.077 321.48 144.213 340.247 142.077 355.761C140.653 366.317 136.652 394.007 136.652 394.007C136.652 394.007 123.011 398.369 111.847 394.831C111.847 394.831 107.376 326.012 106.707 316.28C106.038 306.548 106.123 256.127 108.53 194.681L192.283 203.162Z" fill="#4B717A"/>
<path d="M148.968 268.785L143.272 234.688C136.123 234.273 129.343 231.379 124.106 226.505C124.106 226.505 124.989 234.376 140.253 239.419L145.493 267.834L142.133 321.636L148.968 268.785Z" fill="#3A565E"/>
<path d="M42.6035 81.4639C42.0771 83.8255 42.469 86.2984 43.6999 88.3828C44.2329 89.5187 44.5175 90.7549 44.5347 92.0091C44.5519 93.2633 44.3013 94.5068 43.7995 95.6568C43.2015 97.3617 39.243 106.696 37.8049 108.529C37.0476 109.563 36.1838 110.515 35.2276 111.37C35.3551 112.748 35.9243 114.048 36.8509 115.078C37.9844 116.291 39.2339 117.39 40.5815 118.36C40.5815 118.36 48.6835 107.25 49.011 99.4501C49.3385 91.6504 48.1709 87.5729 42.6035 81.4639Z" fill="#FFAC92"/>
<path d="M32.6352 139.358C32.9578 139.438 33.2991 139.394 33.59 139.233C33.8809 139.072 34.0995 138.807 34.2015 138.491L59.8317 55.9757C59.9346 55.6498 59.904 55.2965 59.7466 54.993C59.5892 54.6895 59.3177 54.4605 58.9916 54.3561C58.8291 54.3015 58.6571 54.2804 58.4862 54.2941C58.3152 54.3077 58.1488 54.3559 57.9971 54.4356C57.8453 54.5153 57.7113 54.6249 57.6033 54.7577C57.4952 54.8906 57.4153 55.044 57.3684 55.2086L31.7382 137.724C31.6854 137.884 31.6654 138.053 31.6793 138.222C31.6931 138.39 31.7406 138.554 31.8189 138.703C31.8972 138.853 32.0047 138.985 32.1351 139.093C32.2656 139.2 32.4162 139.281 32.5783 139.329L32.6352 139.358Z" fill="#1A2E35"/>
<path d="M54.6634 2.37243C56.7423 -1.22198 65.9834 -0.270101 64.7588 2.20195C62.7802 6.46499 61.2669 10.928 60.2451 15.5141C51.9152 8.62358 54.6634 2.37243 54.6634 2.37243Z" fill="#43CAC8"/>
<path d="M89.2786 40.192C82.3869 58.2493 78.2006 60.082 75.0396 60.7355C69.8055 61.8592 64.4006 61.9412 59.1346 60.9771C58.7502 60.9771 50.5058 59.3574 47.4444 57.7662C42.2329 55.0527 39.8977 51.2167 40.2537 44.6956C40.809 34.5801 45.2943 19.1228 54.6066 2.38672C53.9801 5.93851 62.1106 10.7689 67.8062 13.2126C78.9838 18.043 85.2489 17.3042 92.0125 16.4376C95.3871 16.0114 96.4835 17.219 95.9709 19.7479C94.2485 26.7179 92.0116 33.5513 89.2786 40.192Z" fill="#43CAC8"/>
<g opacity="0.2">
<path opacity="0.2" d="M89.2786 40.192C82.3869 58.2493 78.2006 60.082 75.0396 60.7355C69.8055 61.8592 64.4006 61.9412 59.1346 60.9771C58.7502 60.9771 50.5058 59.3574 47.4444 57.7662C42.2329 55.0527 39.8977 51.2167 40.2537 44.6956C40.809 34.5801 45.2943 19.1228 54.6066 2.38672C53.9801 5.93851 62.1106 10.7689 67.8062 13.2126C78.9838 18.043 85.2489 17.3042 92.0125 16.4376C95.3871 16.0114 96.4835 17.219 95.9709 19.7479C94.2485 26.7179 92.0116 33.5513 89.2786 40.192Z" fill="white"/>
</g>
<path opacity="0.2" d="M95.9143 19.7479C96.4269 17.219 95.3305 16.0114 91.9558 16.4376C85.2493 17.3042 78.9841 18.043 67.7495 13.2126C66.9094 12.8574 66.0266 12.4312 65.1153 11.9766C58.2663 20.6998 50.0931 42.7919 49.4524 58.5903C52.6159 59.5703 55.8348 60.3626 59.0922 60.9629C64.3582 61.927 69.7631 61.845 74.9972 60.7213C78.087 60.082 82.2733 58.2351 89.2362 40.1778C91.9637 33.5413 94.1958 26.7127 95.9143 19.7479Z" fill="white"/>
<path d="M68.4609 46.244C68.3003 45.9766 68.1092 45.7287 67.8914 45.5052C67.3415 44.9324 66.7019 44.4525 65.9976 44.0845C64.5979 43.3801 63.0515 43.015 61.4838 43.019C60.1799 43.0065 58.8883 43.2729 57.6963 43.8004C57.0279 43.9904 56.4218 44.3533 55.9392 44.8523C55.4566 45.3513 55.1147 45.9686 54.9481 46.6418C54.8769 46.9117 55.0336 47.409 55.4038 47.4232C56.0303 47.4232 56.5571 46.9259 57.084 46.6134C57.5916 46.3362 58.1201 46.0987 58.6645 45.903C59.7296 45.5126 60.8634 45.3434 61.9964 45.4058C62.9425 45.4619 63.8742 45.6632 64.7588 46.0025C65.1845 46.1528 65.5908 46.3531 65.9691 46.5992C66.4703 46.9912 67.0208 47.316 67.6066 47.5653C67.8203 47.6284 68.0479 47.6284 68.2616 47.5653C68.37 47.539 68.4693 47.4843 68.5494 47.4069C68.6295 47.3294 68.6874 47.2321 68.7172 47.1248C68.7318 46.811 68.6416 46.5013 68.4609 46.244Z" fill="#1A2E35"/>
<path d="M72.7751 30.5738C72.9317 28.2864 71.038 30.247 68.8167 30.105C66.5954 29.9629 64.9294 27.775 64.7728 30.105C64.7079 30.6464 64.7544 31.1954 64.9096 31.7182C65.0648 32.2411 65.3253 32.7268 65.6752 33.1457C66.025 33.5646 66.457 33.9079 66.9444 34.1544C67.4319 34.4009 67.9647 34.5456 68.5102 34.5795C69.0556 34.6134 69.6023 34.5358 70.1167 34.3515C70.6311 34.1672 71.1023 33.8801 71.5016 33.5078C71.9009 33.1354 72.2198 32.6857 72.4387 32.1861C72.6577 31.6865 72.7722 31.1475 72.7751 30.6022V30.5738Z" fill="#1A2E35"/>
<path d="M54.2932 26.17C55.5605 24.3799 53.0402 25.0476 51.303 23.84C49.5659 22.6324 49.2953 20.0183 48.0423 21.8084C47.7349 22.2169 47.5131 22.6829 47.39 23.1787C47.2669 23.6746 47.245 24.19 47.3257 24.6944C47.4064 25.1989 47.588 25.6819 47.8597 26.1149C48.1314 26.5478 48.4876 26.9218 48.9072 27.2145C49.3267 27.5073 49.801 27.7128 50.3018 27.8188C50.8026 27.9249 51.3196 27.9293 51.8222 27.8319C52.3247 27.7344 52.8025 27.537 53.227 27.2515C53.6515 26.966 54.0141 26.5982 54.2932 26.17Z" fill="#1A2E35"/>
<path d="M119.166 92.346C109.797 95.9404 105.853 99.8189 102.179 110.048C99.3313 117.862 92.0551 136.459 88.4954 147.853C83.5402 141.957 74.7975 131.103 71.5652 122.565C68.3329 114.026 68.0339 109.551 65.9835 104.621C63.9331 99.6911 64.5596 100.487 60.1313 96.3808C57.9562 94.5609 55.9542 92.5444 54.1509 90.3569C52.5591 88.0055 51.2855 85.4546 50.3633 82.7703C47.8573 81.4206 46.3337 86.5636 47.1738 90.1154C48.0139 93.6672 49.0391 96.5939 47.3162 101.566C45.5933 106.539 40.5811 118.388 40.5811 118.388C40.5811 118.388 46.7893 124.071 49.5944 125.989C52.3995 127.906 54.9198 132.24 59.4051 142.384C63.8904 152.527 66.7951 160.768 73.9146 172.574C81.0341 184.38 88.9226 189.509 95.5722 183.627C100.913 178.891 105.477 173.349 109.099 167.203C116.019 155.326 125.389 134.84 125.389 134.84C129.034 120.831 127.71 95.1874 119.166 92.346Z" fill="#FFBFA9"/>
<path d="M74.6406 127.864L71.7216 123.02C71.7216 123.02 71.3372 127.282 66.6241 132.297C64.0597 135.185 60.727 137.289 57.0127 138.363L60.2165 145.936C60.2165 145.936 74.0283 139.827 74.6406 127.864Z" fill="#FAFAFA"/>
<path d="M121.244 91.4658C109.739 94.3073 106.294 95.9979 98.7326 114.069C91.072 132.411 86.3304 142.754 86.3304 142.754L74.5548 126.273C74.5548 126.273 71.707 138.122 57.6531 143.691C65.513 159.319 72.2338 173.1 79.8375 182.448C86.2165 190.291 92.6526 188.941 99.3734 181.98C113.285 167.645 125.388 138.094 125.388 138.094C125.388 138.094 135.882 111.626 121.244 91.4658Z" fill="#43CAC8"/>
<path opacity="0.2" d="M121.244 91.4658C109.739 94.3073 106.294 95.9979 98.7326 114.069C91.072 132.411 86.3304 142.754 86.3304 142.754L74.5548 126.273C74.5548 126.273 71.707 138.122 57.6531 143.691C65.513 159.319 72.2338 173.1 79.8375 182.448C86.2165 190.291 92.6526 188.941 99.3734 181.98C113.285 167.645 125.388 138.094 125.388 138.094C125.388 138.094 135.882 111.626 121.244 91.4658Z" fill="#0B2827"/>
<path opacity="0.2" d="M86.3162 142.753C92.7523 150.993 95.4719 158.381 95.8991 163.055C96.3566 158.819 95.8504 154.533 94.418 150.519C92.9857 146.505 90.6641 142.864 87.6262 139.869L86.3162 142.753Z" fill="#0B2827"/>
<path d="M47.7572 92.5732C48.5466 95.5443 48.3924 98.6865 47.3158 101.566C46.2621 104.607 43.9696 110.261 42.3463 114.168C43.0433 115.008 43.9753 115.621 45.0233 115.93C47.629 116.328 49.1668 111.867 49.1668 111.867L52.0147 113.955C53.4386 114.353 54.8624 112.946 54.7628 111.014C54.4654 109.258 53.9389 107.548 53.1965 105.928C57.6533 106.922 58.0662 103.84 57.041 101.865C56.0158 99.8899 50.2205 94.3776 47.7572 92.5732Z" fill="#FFAC92"/>
<path d="M54.0799 113.26C55.5705 113.976 56.9027 114.982 57.9981 116.219C59.0936 117.456 59.9303 118.899 60.459 120.463C59.5619 116.115 58.6079 114.78 54.7634 111.938L54.0799 113.26Z" fill="#FFAC92"/>
<path d="M48.8822 82.7422C47.6007 83.4383 46.846 86.0525 46.9599 88.4251C47.1312 88.5464 47.3273 88.6284 47.5341 88.6653C47.7408 88.7021 47.9532 88.6929 48.156 88.6382C50.719 88.0841 49.6226 84.8875 48.8822 82.7422Z" fill="#FFAC92"/>
<path d="M42.8306 80.7676C42.4882 81.5749 42.3787 82.4617 42.5146 83.3277C42.6504 84.1938 43.0262 85.0048 43.5995 85.6691C44.582 87.3029 47.0027 89.6755 48.3269 88.6384C49.6511 87.6013 49.5942 85.1718 48.3269 82.4725C47.0596 79.7731 46.1056 78.6792 45.1516 78.7076C44.5988 78.7695 44.0788 79.0008 43.6631 79.3697C43.2475 79.7386 42.9567 80.227 42.8306 80.7676Z" fill="#FFBFA9"/>
<path d="M40.2396 90.8259C38.4028 93.1417 38.36 95.2585 40.3108 97.3328C42.2615 99.407 47.9999 102.604 49.9648 103.982C51.3251 105.112 52.9281 105.914 54.6495 106.326C55.0682 106.379 55.4934 106.311 55.8747 106.13C56.256 105.95 56.5773 105.664 56.8006 105.306C57.0239 104.949 57.1398 104.535 57.1346 104.114C57.1294 103.693 57.0032 103.282 56.7711 102.93C55.8256 101.296 54.5848 99.8512 53.1116 98.6683C50.5131 95.9771 47.7553 93.4437 44.853 91.0816C42.9165 89.7035 41.1794 89.6467 40.2396 90.8259Z" fill="#FFBFA9"/>
<path d="M43.4008 99.7772C41.6067 98.4843 39.2288 98.4559 38.2748 99.7772C37.3207 101.098 36.6942 103.627 38.346 105.091C39.9977 106.554 45.2661 109.552 46.8894 110.631C48.5126 111.711 50.0931 113.473 51.4031 113.842C51.748 113.906 52.1032 113.887 52.4394 113.788C52.7756 113.688 53.0834 113.51 53.3376 113.269C53.5918 113.028 53.7852 112.73 53.9018 112.4C54.0185 112.07 54.0552 111.717 54.0089 111.37C53.5775 109.504 52.7361 107.757 51.5455 106.256C49.2491 103.619 46.4888 101.423 43.4008 99.7772Z" fill="#FFBFA9"/>
<path d="M35.3552 112.151C34.9617 110.567 35.1486 108.894 35.8821 107.435C36.295 106.44 36.7079 105.588 38.3169 106.014C39.6914 106.393 40.9948 106.992 42.1757 107.79C43.0554 108.235 43.8302 108.862 44.4488 109.628C45.0674 110.395 45.5157 111.284 45.7639 112.237C46.4759 115.078 46.2196 116.172 44.34 115.859C42.4605 115.547 42.1899 114.524 40.0683 113.245C37.9467 111.967 36.6795 111.157 35.3552 112.151Z" fill="#FFBFA9"/>
<path d="M60.9717 126.813C59.7767 127.702 58.4574 128.41 57.056 128.916C56.0351 129.252 54.9389 129.287 53.8986 129.017C52.8582 128.748 51.9177 128.185 51.1895 127.396C52.099 128.411 52.8962 129.521 53.5674 130.706C53.5674 130.706 54.5499 131.687 56.7427 130.962C58.9355 130.237 60.9717 126.813 60.9717 126.813Z" fill="#FFAC92"/>
<path d="M50.833 127.011C50.817 126.981 50.7921 126.956 50.7618 126.94L50.833 127.011Z" fill="#FFAC92"/>
<path d="M110.779 118.189C112.545 105.403 118.326 87.8854 138.118 87.0898L159.577 88.7379C165.87 90.3717 189.35 97.6458 189.35 97.6458L190.774 148.564C190.774 148.564 192.34 181.241 191.856 202.551C173.559 214.13 133.761 217.881 108.758 198.943C108.031 181.34 109.099 130.819 110.779 118.189Z" fill="#F0F0F0"/>
<path d="M119.437 43.2611C116.148 35.8875 119.267 26.0562 123.097 21.4246C128.65 14.7331 137.336 11.8064 150.422 12.5452C160.389 13.0992 170.2 17.1767 172.122 27.3632C180.153 29.6932 179.241 42.8206 177.362 48.674C173.389 60.4375 165.501 70.7093 165.401 76.7189L119.437 43.2611Z" fill="#1A2E35"/>
<path d="M119.593 70.8795C121.202 76.5624 124.52 80.6824 129.774 81.4638C132.535 81.7266 135.315 81.7266 138.076 81.4638V89.0789C129.304 101.595 156.586 102.604 165.97 88.9368L165.728 65.6229C165.728 65.6229 168.96 69.2457 174.271 65.7649C176.412 64.1663 177.931 61.8778 178.572 59.288C179.214 56.6982 178.936 53.9668 177.788 51.5578C175.14 46.0454 169.886 48.3612 168.277 50.0518C166.668 51.7425 164.802 54.9107 163.45 54.4844C162.668 54.2508 161.957 53.8254 161.383 53.2472C160.808 52.6689 160.388 51.9562 160.16 51.1742C158.917 47.7466 158.314 44.1207 158.38 40.4762C156.96 39.7864 155.691 38.8204 154.65 37.6347C152.372 35.1485 152.172 32.1508 152.058 29.423C140.667 25.9423 126.215 27.4624 121.516 31.1421C118.824 35.9299 118.796 47.0257 118.383 53.4189C117.806 59.2657 118.215 65.1677 119.593 70.8795Z" fill="#FFBFA9"/>
<path d="M138.076 81.4642C143.886 81.109 155.562 78.3244 158.652 75.071C161.741 71.8176 163.037 65.126 163.037 65.126C163.037 65.126 162.61 73.494 160.189 77.2021C157.769 80.9101 151.817 82.615 148.086 83.5385C144.796 84.2551 141.468 84.791 138.119 85.1439L138.076 81.4642Z" fill="#FFAC92"/>
<path d="M141.621 50.9038C141.64 51.3746 141.798 51.8292 142.075 52.211C142.352 52.5928 142.735 52.885 143.177 53.0511C143.619 53.2173 144.1 53.25 144.56 53.1453C145.021 53.0405 145.44 52.803 145.766 52.4622C146.092 52.1214 146.31 51.6924 146.394 51.2286C146.477 50.7649 146.422 50.2869 146.235 49.8542C146.048 49.4215 145.738 49.0532 145.343 48.7952C144.948 48.5373 144.485 48.401 144.013 48.4034C143.691 48.4107 143.374 48.4813 143.08 48.6109C142.786 48.7406 142.52 48.9269 142.298 49.1591C142.076 49.3913 141.901 49.6649 141.785 49.9642C141.669 50.2636 141.613 50.5829 141.621 50.9038Z" fill="#1A2E35"/>
<path d="M141.009 43.5152L147.032 46.3566C147.701 44.8364 146.448 43.2452 144.996 42.5633C144.673 42.3577 144.312 42.2191 143.935 42.1557C143.558 42.0923 143.172 42.1054 142.799 42.1942C142.427 42.2831 142.077 42.4458 141.769 42.6728C141.462 42.8997 141.203 43.1862 141.009 43.5152Z" fill="#1A2E35"/>
<path d="M122.384 45.1924L128.208 44.2263C128.163 43.8449 128.041 43.4766 127.849 43.1435C127.658 42.8105 127.401 42.5197 127.093 42.2886C126.786 42.0576 126.435 41.8911 126.061 41.7993C125.687 41.7074 125.299 41.6921 124.919 41.7543C124.137 41.8969 123.439 42.3323 122.968 42.9714C122.496 43.6104 122.288 44.4049 122.384 45.1924Z" fill="#1A2E35"/>
<path d="M123.338 50.5483C123.36 51.0149 123.519 51.4647 123.795 51.842C124.071 52.2192 124.452 52.5074 124.89 52.6708C125.329 52.8341 125.806 52.8655 126.262 52.7609C126.719 52.6564 127.134 52.4206 127.457 52.0827C127.781 51.7448 127.997 51.3197 128.081 50.8601C128.164 50.4004 128.111 49.9265 127.927 49.4969C127.743 49.0674 127.437 48.7011 127.046 48.4435C126.656 48.186 126.198 48.0484 125.73 48.0479C125.407 48.0534 125.09 48.1226 124.794 48.2516C124.499 48.3807 124.233 48.5669 124.01 48.7995C123.788 49.0321 123.614 49.3064 123.498 49.6066C123.383 49.9068 123.328 50.2269 123.338 50.5483Z" fill="#1A2E35"/>
<path d="M135.498 45.4766L133.861 62.6956L124.591 59.9679L135.498 45.4766Z" fill="#FFAC92"/>
<path d="M140.553 67.5769C140.513 67.6271 140.465 67.6703 140.41 67.7048C140.159 67.8682 139.87 67.9659 139.57 67.9889C139.144 68.0277 138.714 67.9644 138.317 67.8042C138.087 67.7213 137.877 67.5912 137.701 67.4224C137.524 67.2536 137.385 67.0497 137.292 66.8239C137.292 66.6819 137.292 66.4972 137.377 66.4545C137.463 66.4119 137.563 66.4545 137.648 66.4545C138.463 66.9042 139.416 67.0406 140.325 66.8381L140.61 66.8381C140.659 66.8441 140.706 66.863 140.746 66.8929C140.786 66.9229 140.818 66.9628 140.837 67.0086C140.852 67.1933 140.681 67.4206 140.553 67.5769Z" fill="#C76668"/>
<path d="M105.952 135.806C108.287 114.495 109.711 103.712 115.649 96.0257C119.266 91.3658 121.644 90.6412 137.677 86.4785V87.3309C135.764 88.8362 134.147 90.6809 132.907 92.7723C130.287 96.6935 127.211 103.385 124.15 114.907C120.006 130.535 117.927 165.57 117.714 184.522C117.5 203.474 118.625 233.281 118.625 233.281C118.625 233.281 108.658 231.619 103.403 224.757C103.403 224.686 104.187 151.874 105.952 135.806Z" fill="#43CAC8"/>
<path d="M118.155 169.321C115.592 157.302 110.523 153.111 111.121 148.948C111.719 144.785 119.85 131.303 119.85 131.303C118.273 130.181 116.787 128.936 115.407 127.581C114.225 125.663 116.931 115.647 123.31 104.252C128.834 94.3926 131.654 85.6552 138.118 82.5723V87.0901C138.118 87.0901 134.046 91.5512 126.727 116.286C121.729 132.993 120.12 150.696 118.155 169.321Z" fill="#4B717A"/>
<path d="M159.248 109.992C161.27 101.467 163.848 90.741 165.741 86.3652L189.748 94.9748C196.327 98.0293 201.481 102.874 199.83 113.941L192.881 162.572L194.874 224.303C184.665 240.101 152.058 238.68 152.058 238.68C152.058 238.68 151.332 216.361 152.314 172.816C152.855 148.351 156.643 120.96 159.248 109.992Z" fill="#43CAC8"/>
<path d="M165.884 80.4688V84.5888C164.289 88.6521 160.644 98.9097 159.662 102.873C156.814 114.452 152.215 131.174 152.272 172.744C154.948 158.622 164.745 156.903 165.087 153.394C165.428 149.885 159.961 138.079 159.306 135.593C158.651 133.106 165.186 134.285 167.166 132.069C169.145 129.853 172.989 88.993 172.989 88.993C172.989 88.993 169.486 87.1319 168.475 84.4183C167.465 81.7048 167.251 80.9802 165.884 80.4688Z" fill="#4B717A"/>
<path d="M258.267 83.8223C258.835 86.1755 258.478 88.6561 257.271 90.7554C256.752 91.9006 256.484 93.1428 256.484 94.3995C256.484 95.6562 256.752 96.8984 257.271 98.0436C257.883 99.7343 261.969 109.012 263.436 110.83C264.217 111.816 265.1 112.716 266.07 113.515C265.983 114.929 265.427 116.273 264.49 117.337C263.384 118.599 262.153 119.746 260.816 120.761C260.816 120.761 252.557 109.722 252.116 101.908C251.675 94.0941 252.785 89.974 258.267 83.8223Z" fill="#FFAC92"/>
<path d="M269.046 141.531C268.721 141.619 268.375 141.576 268.082 141.411C267.789 141.246 267.573 140.973 267.48 140.651L240.639 58.5474C240.587 58.3824 240.568 58.2085 240.585 58.0362C240.601 57.8638 240.652 57.6965 240.734 57.5441C240.816 57.3918 240.929 57.2574 241.064 57.1491C241.199 57.0408 241.355 56.9607 241.522 56.9136C241.682 56.8564 241.853 56.8325 242.023 56.8434C242.193 56.8542 242.359 56.8996 242.511 56.9768C242.663 57.0539 242.798 57.1612 242.907 57.292C243.016 57.4228 243.097 57.5745 243.145 57.7376L269.929 139.883C269.982 140.045 270.003 140.215 269.991 140.385C269.978 140.554 269.932 140.719 269.855 140.871C269.779 141.023 269.673 141.158 269.544 141.269C269.414 141.38 269.265 141.464 269.103 141.517L269.046 141.531Z" fill="#1A2E35"/>
<path d="M245.039 4.81583C242.889 1.24983 233.648 2.35799 234.944 4.81583C236.986 9.04776 238.58 13.4807 239.7 18.0427C247.887 11.0101 245.039 4.81583 245.039 4.81583Z" fill="#43CAC8"/>
<path d="M211.093 43.2466C218.312 61.1618 222.484 62.9377 225.631 63.5344C230.881 64.5774 236.286 64.5774 241.536 63.5344C241.92 63.4492 250.15 61.7585 253.169 60.1105C258.338 57.2691 260.602 53.4331 260.132 46.9262C259.391 36.8107 254.621 21.3534 245.024 4.87305C245.779 8.45325 237.705 13.3973 232.081 15.9688C220.989 20.9982 214.709 20.3731 207.989 19.6343C204.614 19.2507 203.546 20.4867 204.101 23.0014C205.929 29.9123 208.266 36.6791 211.093 43.2466Z" fill="#43CAC8"/>
<g opacity="0.2">
<path opacity="0.2" d="M211.093 43.2466C218.312 61.1618 222.484 62.9377 225.631 63.5344C230.881 64.5774 236.286 64.5774 241.536 63.5344C241.92 63.4492 250.15 61.7585 253.169 60.1105C258.338 57.2691 260.602 53.4331 260.132 46.9262C259.391 36.8107 254.621 21.3534 245.024 4.87305C245.779 8.45325 237.705 13.3973 232.081 15.9688C220.989 20.9982 214.709 20.3731 207.989 19.6343C204.614 19.2507 203.546 20.4867 204.101 23.0014C205.929 29.9123 208.266 36.6791 211.093 43.2466Z" fill="white"/>
</g>
<path opacity="0.2" d="M204.102 22.9157C203.546 20.401 204.614 19.165 207.989 19.5486C214.71 20.2874 220.989 20.9693 232.081 15.8831C232.907 15.5138 233.804 15.0733 234.701 14.6045C241.707 23.1288 250.265 45.1499 251.147 60.934C247.99 61.9651 244.777 62.8142 241.522 63.4771C236.272 64.5202 230.867 64.5202 225.617 63.4771C222.513 62.8804 218.298 61.1045 211.079 43.1893C208.256 36.6122 205.924 29.8359 204.102 22.9157Z" fill="white"/>
<path d="M245.609 49.1419C245.457 49.4081 245.276 49.656 245.068 49.8807C244.531 50.4499 243.906 50.9296 243.216 51.3014C241.826 52.0793 240.268 52.513 238.674 52.5659C237.372 52.6181 236.075 52.3853 234.872 51.8839C234.197 51.723 233.578 51.3854 233.077 50.9059C232.577 50.4264 232.213 49.8224 232.025 49.1561C231.953 48.8862 232.096 48.3748 232.466 48.3605C233.093 48.3605 233.634 48.8294 234.16 49.1135C234.698 49.3628 235.255 49.5671 235.826 49.7244C236.9 50.0739 238.031 50.2137 239.158 50.1364C240.102 50.0507 241.029 49.8257 241.906 49.4687C242.325 49.2951 242.726 49.081 243.103 48.8294C243.592 48.4244 244.133 48.0853 244.712 47.8207C244.92 47.7411 245.146 47.7166 245.367 47.7496C245.477 47.7695 245.58 47.82 245.663 47.8954C245.746 47.9708 245.806 48.068 245.836 48.1758C245.879 48.5147 245.798 48.8577 245.609 49.1419Z" fill="#1A2E35"/>
<path d="M235.001 34.7792C235.228 37.0666 233.263 35.1486 231.056 35.3617C228.849 35.5748 227.283 37.8054 227.012 35.518C226.938 34.9816 226.972 34.4355 227.115 33.9129C227.258 33.3903 227.505 32.902 227.842 32.4775C228.179 32.0529 228.599 31.701 229.076 31.443C229.554 31.1849 230.078 31.0261 230.619 30.9761C231.159 30.9261 231.704 30.986 232.221 31.1521C232.738 31.3182 233.215 31.5872 233.625 31.9427C234.034 32.2981 234.368 32.7328 234.604 33.2203C234.84 33.7079 234.975 34.2382 235.001 34.7792Z" fill="#1A2E35"/>
<path d="M253.355 26.0417C254.522 27.8887 252.045 27.1073 250.265 28.2438C248.485 29.3804 248.072 31.9661 246.904 30.1192C246.621 29.6961 246.424 29.2212 246.325 28.7219C246.226 28.2226 246.227 27.7087 246.327 27.2097C246.428 26.7107 246.626 26.2364 246.911 25.8141C247.196 25.3918 247.561 25.0298 247.987 24.7489C248.872 24.2167 249.932 24.054 250.937 24.296C251.941 24.538 252.81 25.1652 253.355 26.0417Z" fill="#1A2E35"/>
<path d="M191.301 95.7417C200.713 99.2082 204.714 103.03 208.53 113.202C211.449 120.988 215.763 130.251 219.494 141.617C223.492 136.544 226.978 131.091 229.903 125.335C234.018 117.024 233.249 112.265 235.214 107.321C237.179 102.376 236.638 103.158 240.909 98.9951C243.062 97.1477 245.036 95.1023 246.804 92.8861C248.379 90.5127 249.633 87.9428 250.535 85.2426C253.012 83.8219 254.607 88.9791 253.824 92.5451C253.041 96.1111 252.044 99.0378 253.824 103.911C255.604 108.784 260.815 120.761 260.815 120.761C260.815 120.761 254.678 126.443 251.916 128.489C249.154 130.535 246.705 134.257 243.301 144.813C239.784 155.71 235.043 169.235 230.657 177.859C224.435 190.148 218.227 193.643 211.492 187.804C208.387 185.147 204.372 178.399 200.1 170.031C192.511 155.085 185.605 138.349 185.605 138.349C181.86 124.369 182.8 98.6684 191.301 95.7417Z" fill="#FFBFA9"/>
<path d="M225.859 131.36L229.376 124.796C230.208 128.658 232.153 132.194 234.972 134.968C237.827 137.929 241.207 140.337 244.939 142.072L242.875 148.465C242.875 148.465 226.714 143.35 225.859 131.36Z" fill="#FAFAFA"/>
<path d="M189.749 94.9746C199.132 97.9297 203.148 99.2368 207.847 108.756C212.546 118.274 219.58 138.974 219.58 138.974L226.315 129.782C226.315 129.782 226.144 135.366 232.964 141.574C240.24 148.209 244.085 147.626 244.085 147.626C244.085 147.626 235.926 172.46 232.067 179.933C228.208 187.406 220.377 197.607 212.375 190.504C204.372 183.4 198.321 171.381 191.016 155.071C183.712 138.761 183.413 140.111 182.188 129.498C180.963 118.885 180.707 99.4499 189.749 94.9746Z" fill="#43CAC8"/>
<path opacity="0.2" d="M189.749 94.9746C199.132 97.9297 203.148 99.2368 207.847 108.756C212.546 118.274 219.58 138.974 219.58 138.974L226.315 129.782C226.315 129.782 226.144 135.366 232.964 141.574C240.24 148.209 244.085 147.626 244.085 147.626C244.085 147.626 235.926 172.46 232.067 179.933C228.208 187.406 220.377 197.607 212.375 190.504C204.372 183.4 198.321 171.381 191.016 155.071C183.712 138.761 183.413 140.111 182.188 129.498C180.963 118.885 180.707 99.4499 189.749 94.9746Z" fill="#0B2827"/>
<path opacity="0.2" d="M219.579 138.975C214.852 145.68 208.43 152.94 208.117 166.892C206.442 160.217 207.325 153.159 210.594 147.101C212.778 142.895 215.347 138.9 218.269 135.167L219.579 138.975Z" fill="#0B2827"/>
<path d="M253.269 94.9746C252.531 97.955 252.73 101.09 253.839 103.954C254.935 106.994 257.313 112.606 258.993 116.484C258.293 117.356 257.337 117.987 256.259 118.289C253.654 118.715 252.059 114.296 252.059 114.296L249.296 116.399C247.873 116.825 246.377 115.447 246.449 113.558C246.701 111.799 247.179 110.08 247.873 108.443C243.444 109.509 242.974 106.426 243.971 104.437C244.968 102.448 250.834 96.8215 253.269 94.9746Z" fill="#FFAC92"/>
<path d="M247.218 115.746C245.735 116.483 244.416 117.509 243.338 118.763C242.259 120.017 241.443 121.474 240.938 123.048C241.778 118.687 242.704 117.365 246.534 114.41L247.218 115.746Z" fill="#FFAC92"/>
<path d="M252.002 85.1572C253.297 85.825 254.095 88.4249 254.009 90.8401C253.84 90.9663 253.645 91.0534 253.439 91.0952C253.232 91.137 253.018 91.1323 252.813 91.0816C250.279 90.5133 251.29 87.3025 252.002 85.1572Z" fill="#FFAC92"/>
<path d="M258.039 83.0974C258.407 83.9068 258.541 84.8028 258.425 85.6842C258.31 86.5655 257.949 87.3969 257.384 88.0842C256.416 89.7322 254.023 92.1332 252.685 91.1103C251.346 90.0874 251.375 87.6721 252.585 84.9586C253.796 82.245 254.764 81.1226 255.718 81.1369C256.256 81.1976 256.764 81.4164 257.177 81.7654C257.59 82.1145 257.89 82.5781 258.039 83.0974Z" fill="#FFBFA9"/>
<path d="M260.773 93.128C262.624 95.4012 262.709 97.5322 260.773 99.6349C258.836 101.738 253.169 105.005 251.204 106.398C249.865 107.553 248.276 108.384 246.562 108.827C246.142 108.892 245.712 108.834 245.325 108.661C244.937 108.487 244.607 108.206 244.375 107.85C244.144 107.495 244.02 107.08 244.019 106.656C244.018 106.232 244.14 105.817 244.37 105.46C245.278 103.792 246.496 102.312 247.958 101.098C250.521 98.3718 253.246 95.8004 256.117 93.398C258.082 92.0341 259.805 91.9488 260.773 93.128Z" fill="#FFBFA9"/>
<path d="M257.74 102.106C259.506 100.799 261.884 100.686 262.852 102.106C263.82 103.527 264.489 105.914 262.88 107.406C261.271 108.897 256.017 111.966 254.337 113.089C252.657 114.211 251.176 116.029 249.88 116.356C249.534 116.429 249.175 116.418 248.834 116.325C248.492 116.231 248.178 116.058 247.918 115.819C247.657 115.58 247.458 115.282 247.336 114.95C247.214 114.619 247.173 114.263 247.217 113.913C247.622 112.038 248.439 110.276 249.609 108.755C251.891 106.064 254.647 103.81 257.74 102.106Z" fill="#FFBFA9"/>
<path d="M265.956 114.367C266.325 112.779 266.113 111.111 265.358 109.665C264.93 108.685 264.503 107.818 262.894 108.244C261.519 108.664 260.221 109.302 259.05 110.134C258.177 110.598 257.414 111.243 256.81 112.024C256.206 112.805 255.775 113.706 255.547 114.666C254.878 117.507 255.148 118.601 256.971 118.26C258.793 117.919 259.107 116.84 261.242 115.589C263.378 114.339 264.617 113.401 265.956 114.367Z" fill="#FFBFA9"/>
<path d="M240.553 129.398C241.76 130.266 243.089 130.951 244.497 131.43C245.536 131.738 246.641 131.743 247.682 131.446C248.724 131.149 249.659 130.562 250.378 129.754C249.464 130.789 248.662 131.917 247.986 133.121C247.534 133.453 247 133.658 246.441 133.713C245.882 133.768 245.319 133.671 244.81 133.433C242.618 132.751 240.553 129.398 240.553 129.398Z" fill="#FFAC92"/>
</g>
<defs>
<clipPath id="clip0">
<rect width="270" height="478" fill="white" transform="matrix(-1 0 0 1 270 0)"/>
</clipPath>
</defs>
</svg>
